<svg xmlns="http://www.w3.org/2000/svg" width="21" height="21" viewBox="0 0 21 21">
    <path fill="#000" fill-rule="nonzero" stroke="#F7FAFD" stroke-width=".5" d="M3.306 1.048L10.5 8.243l7.194-7.195a.997.997 0 0 1 1.41-.006l.854.854a.994.994 0 0 1-.006 1.41L12.757 10.5l7.195 7.194a.997.997 0 0 1 .006 1.41l-.854.854a.994.994 0 0 1-1.41-.006L10.5 12.757l-7.194 7.195a.997.997 0 0 1-1.41.006l-.854-.854a.994.994 0 0 1 .006-1.41L8.243 10.5 1.048 3.306a.997.997 0 0 1-.006-1.41l.854-.854a.994.994 0 0 1 1.41.006z"/>
</svg>
