<?xml version="1.0" encoding="UTF-8" standalone="no"?>
<svg width="200px" height="200px" viewBox="0 0 200 200" version="1.1" xmlns="http://www.w3.org/2000/svg" xmlns:xlink="http://www.w3.org/1999/xlink">
    <!-- Generator: Sketch 50.2 (55047) - http://www.bohemiancoding.com/sketch -->
    <title>check_white</title>
    <desc>Created with Sketch.</desc>
    <defs></defs>
    <g id="web" stroke="none" stroke-width="1" fill="none" fill-rule="evenodd">
        <g id="Desktop-HD" transform="translate(-203.000000, -800.000000)" fill="#FFFFFF" fill-rule="nonzero">
            <g id="check-copy" transform="translate(203.000000, 800.000000)">
                <g id="Group-5">
                    <path d="M173.073646,20 C165.859717,20 159.091802,22.8050611 154.015478,27.9004932 L67.5143808,114.713119 L46.98763,94.1099175 C41.9120826,89.0160451 35.144168,86.210984 27.9310163,86.210984 C20.7170876,86.210984 13.948396,89.0176047 8.87362555,94.1114772 C3.79652407,99.2069093 1,105.999259 1,113.238454 C1,120.477648 3.79574704,127.269998 8.87284852,132.36543 L48.5144902,172.149416 L48.8571596,172.487084 C48.9162137,172.545572 48.9775989,172.602499 49.0389841,172.659427 L49.3878697,172.983058 C49.4383766,173.032188 49.4912145,173.078978 49.5440524,173.124208 L49.9014853,173.439261 C49.9504381,173.481372 49.9986138,173.524263 50.0483436,173.564034 L50.4112157,173.869729 C50.4593915,173.90872 50.5067902,173.949272 50.5557429,173.989043 L50.9232772,174.28382 C50.9877706,174.336069 51.0538179,174.385979 51.1190883,174.436668 L51.4936158,174.719747 C51.553447,174.765758 51.6148322,174.808648 51.6762174,174.853099 L52.0561842,175.124481 C52.108245,175.160353 52.1603059,175.197785 52.2131438,175.233658 L52.5977727,175.494122 C52.6521647,175.531554 52.7073337,175.567426 52.7617257,175.603299 L53.1533478,175.855185 C53.212402,175.892617 53.2722331,175.930049 53.3312872,175.967481 L53.7267945,176.20767 C53.7928419,176.248221 53.8604434,176.287213 53.9272678,176.326984 L54.3266602,176.553916 C54.3794981,176.584329 54.431559,176.613963 54.4851739,176.642817 L54.8884515,176.86117 C54.9467286,176.891584 55.0042287,176.922777 55.0625058,176.95319 L55.4704456,177.161406 C55.5364929,177.195719 55.6033174,177.227692 55.6701418,177.260445 L56.0827437,177.456963 C56.1425748,177.485817 56.2039601,177.513891 56.2653453,177.541965 L56.6802783,177.729125 C56.7432176,177.756419 56.8069339,177.783713 56.8706502,177.812567 L57.2917994,177.98803 C57.3461913,178.010645 57.4021374,178.03404 57.4565293,178.056655 L57.8776786,178.22198 C57.946057,178.247714 58.0136585,178.274228 58.0820369,178.298403 L58.5109564,178.45515 C58.5801119,178.479325 58.6484904,178.504279 58.7176459,178.526895 L59.1450114,178.670384 C59.2048425,178.68988 59.2662277,178.709376 59.327613,178.728871 L59.7596406,178.862223 C59.827242,178.883278 59.8956205,178.902774 59.964776,178.92227 L60.3991347,179.044704 C60.4449793,179.057961 60.490824,179.070438 60.5374457,179.082136 L60.9718044,179.195992 C61.0588315,179.218607 61.1466357,179.240442 61.2336628,179.260718 L61.6742378,179.359757 C61.7224135,179.371454 61.7698122,179.380812 61.817988,179.39017 L62.2585629,179.482191 C62.3393738,179.498567 62.4186307,179.514944 62.4986646,179.528201 L62.7418743,179.572651 C62.8755232,179.599945 63.009949,179.62334 63.146706,179.644396 L63.590389,179.713021 C63.6408958,179.72004 63.6906256,179.727838 63.7411325,179.734077 L64.1863695,179.792564 C64.2601872,179.802702 64.3340049,179.81206 64.4078226,179.819858 L64.8530596,179.867428 C64.9027894,179.872107 64.9532963,179.877566 65.0045801,179.880685 L65.4513713,179.919677 C65.5368444,179.928255 65.6215404,179.934494 65.7070135,179.939173 L66.1553587,179.963348 C66.2144128,179.966467 66.274244,179.970366 66.3325211,179.971926 L66.7793123,179.988302 C66.8344813,179.989862 66.8904273,179.991422 66.9448192,179.991422 L67.3931644,179.99844 C67.4327929,180 67.4739754,180 67.5136038,180 C67.5532322,180 67.5944147,180 67.6332661,179.99844 L68.0816113,179.991422 C68.1360033,179.991422 68.1919493,179.989862 68.2463413,179.988302 L68.6939095,179.971926 C68.763842,179.970366 68.8322204,179.967247 68.902153,179.961788 L69.3504982,179.936054 C69.4157685,179.931375 69.482593,179.925916 69.5486403,179.921237 L69.9938774,179.883805 C70.0521545,179.879126 70.1112087,179.872107 70.1687087,179.867428 L70.6154999,179.819858 C70.6893176,179.81128 70.7631352,179.803482 70.8361759,179.794124 L71.282967,179.734077 C71.3358049,179.727838 71.3894199,179.71926 71.4422578,179.711462 L71.8843868,179.645176 C72.0203667,179.62412 72.1555696,179.599166 72.2892184,179.571871 L72.5316511,179.52976 C72.6085769,179.514944 72.6870568,179.500907 72.7632055,179.48375 L73.2045575,179.39329 C73.2651657,179.380032 73.3249968,179.367555 73.385605,179.352738 L73.8246259,179.25214 C73.8883422,179.237323 73.9512815,179.221726 74.0142207,179.20457 L74.4509105,179.092274 C74.5107417,179.077457 74.5713499,179.06186 74.6319581,179.043144 L75.0655397,178.92149 C75.1362493,178.901994 75.2046277,178.882499 75.2745603,178.861443 L75.7058109,178.726532 C75.7671961,178.709376 75.8278043,178.6891 75.8899665,178.668044 L76.318886,178.524555 C76.3857104,178.50194 76.4540889,178.476985 76.5209133,178.45281 L76.9498328,178.296064 C77.0057788,178.275008 77.0617249,178.253953 77.1184479,178.232897 L77.5403742,178.069132 C77.6172999,178.038719 77.6957798,178.007525 77.7711515,177.974772 L78.1907467,177.79775 C78.2295981,177.781374 78.2684495,177.763438 78.3065238,177.747841 L78.7237879,177.56224 C78.8053759,177.526368 78.8838557,177.490496 78.9631126,177.451504 L79.3733834,177.254986 C79.4308835,177.227692 79.4876065,177.198058 79.5443296,177.169984 L79.9538234,176.960209 C80.0159856,176.929795 80.0781479,176.897042 80.1403101,176.86273 L80.5435877,176.644376 C80.5964256,176.615523 80.6500405,176.585889 80.7021014,176.555475 L81.1014939,176.328544 C81.1714264,176.287993 81.2398049,176.246661 81.3081833,176.20533 L81.7036906,175.965141 C81.7650758,175.927709 81.8272381,175.888718 81.8894003,175.849726 L82.2794684,175.59784 C82.3253131,175.567426 82.3703807,175.537793 82.4162254,175.507379 L82.8024083,175.246915 C82.8599084,175.207923 82.9166315,175.167372 82.9733545,175.1276 L83.3533212,174.856218 C83.4170375,174.810208 83.4791998,174.765758 83.5421391,174.718188 L83.9158896,174.435108 C83.9796059,174.385979 84.0425451,174.337629 84.1047074,174.28694 L84.4722417,173.992163 C84.5118701,173.95941 84.5514985,173.927436 84.591904,173.894683 L84.9547761,173.592888 C85.0588979,173.505547 85.1622426,173.415866 85.2624792,173.323066 L85.4893714,173.121868 C85.532108,173.084436 85.5756216,173.045445 85.616804,173.006453 L85.9680207,172.682822 C86.03096,172.624335 86.0938993,172.565847 86.1560615,172.50424 L86.4979539,172.169692 C86.5624472,172.108085 86.6253865,172.043359 86.6875487,171.978633 L192.131036,66.1560057 C197.205807,61.0621332 200.000777,54.2697834 200,47.030589 C200,39.7898349 197.204253,32.997485 192.128705,27.9051722 C187.055489,22.8050611 180.287574,20 173.073646,20 Z M180.9822,54.7828608 L75.2713106,161.014956 L74.6825285,161.555843 L73.2708514,162.564146 L71.6655062,163.33327 L69.6642693,163.864778 L67.9795902,164 L67.7330328,163.996873 L65.9744643,163.807719 L64.2812296,163.327017 L62.4798831,162.435959 L61.0184278,161.328389 L21.0193556,121.147925 C19.0725635,119.191505 18,116.573827 18,113.772466 C18,110.972668 19.0725635,108.354208 21.0201333,106.397006 C22.9653699,104.440587 25.5709446,103.363501 28.3585207,103.363501 C31.1445412,103.363501 33.7508937,104.440587 35.6969081,106.395443 L62.1112137,132.943501 C63.6675585,134.507542 65.7792407,135.387658 67.980368,135.387658 C70.1814953,135.387658 72.2923997,134.507542 73.8495223,132.943501 L166.30387,40.0319422 C168.249884,38.0770859 170.855459,37 173.643035,37 C176.428278,37 179.03463,38.0770859 180.982978,40.0335055 C182.928214,41.9883617 184,44.6060401 184,47.4066199 C183.996889,50.2087629 182.926659,52.8280045 180.9822,54.7828608 Z" id="Shape"></path>
                </g>
            </g>
        </g>
    </g>
</svg>