<?xml version="1.0" encoding="UTF-8" standalone="no"?>
<svg width="200px" height="200px" viewBox="0 0 200 200" version="1.1" xmlns="http://www.w3.org/2000/svg" xmlns:xlink="http://www.w3.org/1999/xlink">
    <!-- Generator: Sketch 50.2 (55047) - http://www.bohemiancoding.com/sketch -->
    <title>X_white</title>
    <desc>Created with Sketch.</desc>
    <defs></defs>
    <g id="web" stroke="none" stroke-width="1" fill="none" fill-rule="evenodd">
        <g id="Desktop-HD" transform="translate(-412.000000, -803.000000)" fill="#FFFFFF" fill-rule="nonzero" stroke="#FFFFFF" stroke-width="8">
            <g id="Group-6-Copy" transform="translate(412.000000, 803.000000)">
                <g id="X" transform="translate(20.000000, 19.000000)">
                    <path d="M103.706014,95.9997511 C100.985345,93.2919229 96.6253875,93.340965 93.9655608,96.1048415 C91.304586,98.8698856 91.3516525,103.305866 94.0688773,106.012527 L148.293986,160.000948 C149.634805,161.335595 151.373967,162 153.11198,162 C154.899356,162 156.685584,161.295895 158.034439,159.89469 C160.695414,157.129646 160.648348,152.693665 157.931123,149.987004 L103.706014,95.9997511 Z" id="Shape"></path>
                    <path d="M55.0092294,64.943243 C56.3800045,66.3140241 58.1780495,67 59.9760944,67 C61.7741393,67 63.5710136,66.3140241 64.9429594,64.943243 C67.6856802,62.2005102 67.6856802,57.7533731 64.9429594,55.0106403 L11.9896,2.05704963 C9.24687912,-0.685683211 4.79859091,-0.685683211 2.05704065,2.05704963 C-0.685680216,4.79978248 -0.685680216,9.24691951 2.05704065,11.9896524 L55.0092294,64.943243 Z" id="Shape"></path>
                    <path d="M157.969561,2.03044292 C155.262308,-0.676814308 150.871545,-0.676814308 148.165448,2.03044292 L2.03043926,148.165716 C-0.676813086,150.872973 -0.676813086,155.262589 2.03043926,157.969846 C3.3834877,159.322897 5.15828053,160 6.93307335,160 C8.70786618,160 10.4815035,159.322897 11.8357075,157.969846 L157.969561,11.8357288 C160.676813,9.12731612 160.676813,4.73885562 157.969561,2.03044292 Z" id="Shape"></path>
                </g>
            </g>
        </g>
    </g>
</svg>