<?xml version="1.0" encoding="UTF-8"?>
<svg width="427px" height="280px" viewBox="0 0 427 280" version="1.1" xmlns="http://www.w3.org/2000/svg" xmlns:xlink="http://www.w3.org/1999/xlink">
    <!-- Generator: Sketch 61 (89581) - https://sketch.com -->
    <title>uploaded</title>
    <desc>Created with Sketch.</desc>
    <g id="Page-1" stroke="none" stroke-width="1" fill="none" fill-rule="evenodd">
        <g id="uploaded" fill-rule="nonzero">
            <g id="cloud-(1)" fill="#000000">
                <path d="M362.667,110.934 C358.4,72.534 326.4,42.667 288,42.667 C275.2,42.667 262.4,46.934 253.867,51.2 C241.067,21.333 211.2,-1.98951966e-13 174.934,-1.98951966e-13 C128,-1.98951966e-13 89.6,38.401 89.6,85.334 C89.6,91.734 89.6,100.267 91.733,106.667 L85.333,106.667 C61.866,106.667 40.533,117.334 25.6,132.267 C10.667,149.334 8.52651283e-14,170.668 8.52651283e-14,194.134 C8.52651283e-14,241.067 38.4,279.467 85.333,279.467 L170.666,279.467 L256,279.467 L341.333,279.467 C364.8,279.467 386.133,268.8 401.066,253.867 C415.999,238.934 426.666,217.6 426.666,194.134 C426.666,153.601 398.933,121.601 362.667,110.934 Z" id="Path"></path>
            </g>
            <g transform="translate(142.000000, 110.000000)" fill="#FAFAFA" id="Path">
                <path d="M128.706338,19.4823253 L55.6873149,93.6547397 C53.4966826,95.8800379 50.6210922,97 47.7455012,97 C44.8699103,97 41.9943199,95.8800379 39.8036876,93.6547397 L3.29520478,56.5685325 C-1.09840159,52.1074899 -1.09840159,44.8945992 3.29520478,40.4335566 C7.68675383,35.9704241 14.7852257,35.9704241 19.1788321,40.4335566 L47.7455012,69.4522758 L112.822711,3.34734938 C117.21426,-1.11578313 124.312731,-1.11578313 128.706338,3.34734938 C133.097887,7.808392 133.097887,15.0191928 128.706338,19.4823253 Z"></path>
            </g>
        </g>
    </g>
</svg>