<svg xmlns="http://www.w3.org/2000/svg" width="302" height="282" viewBox="0 0 302 282">
    <g fill="#FEF3D5" fill-rule="evenodd">
        <path d="M260 273l47.532 4.58 9.468.906a57.633 57.633 0 0 1-9.054 3.514l-.792-.075-37.84-3.648-.01.002c-3.141-1.497-6.237-3.271-9.304-5.279M245 262l62.634 5.514L330 269.483a88.33 88.33 0 0 1-5.453 3.517l-17.29-1.522-56.536-4.977A130.099 130.099 0 0 1 245 262M235 252l74.285 6.563L341 261.366a115.195 115.195 0 0 1-4.266 3.634l-27.826-2.46-69.356-6.127A168.822 168.822 0 0 1 235 252M225 242l84.533 7.64L349 253.21a153.426 153.426 0 0 1-3.63 3.79l-36.214-3.28-80.192-7.257c-1.329-1.46-2.65-2.949-3.964-4.463M217 231l.573.053 92.594 8.695L356 244.052c-.472.62-.963 1.232-1.453 1.844-.577.714-1.152 1.408-1.73 2.104l-43.026-4.039-89.228-8.38A370.652 370.652 0 0 1 217 231M209 221l9.067.827 93.132 8.526 51.801 4.74a118.59 118.59 0 0 1-2.8 3.907l-49.379-4.519-93.13-8.523-5.37-.495A616.343 616.343 0 0 1 209 221M202 212l17.133 1.55 93.136 8.428 56.731 5.13a162.636 162.636 0 0 1-2.466 3.892l-54.642-4.942-93.137-8.426-13.61-1.235A382.483 382.483 0 0 1 202 212M195 202l24.883 2.238 93.12 8.382L374 218.11a141.169 141.169 0 0 1-2.215 3.89l-59.159-5.32-93.12-8.382-21.482-1.934c-1.013-1.449-2.018-2.906-3.024-4.364M189 192l32.362 2.908 92.981 8.367L379 209.09a196.266 196.266 0 0 1-1.986 3.91l-63.048-5.673-92.982-8.366-29.04-2.608c-.983-1.448-1.959-2.905-2.944-4.353M182 182l39.804 3.578 93.091 8.375L383 200.077a170.515 170.515 0 0 1-1.831 3.923l-66.66-5.991-93.082-8.375-36.534-3.282L182 182M176 172l47.076 4.254 92.89 8.389 71.034 6.41a240.72 240.72 0 0 1-1.697 3.947l-69.713-6.296-92.89-8.387-43.824-3.958c-.965-1.46-1.92-2.916-2.876-4.359M169 162l54.417 4.935 92.803 8.411 73.78 6.685c-.521 1.326-1.062 2.644-1.6 3.969l-72.556-6.58-92.803-8.41-51.14-4.64c-.972-1.465-1.937-2.923-2.901-4.37M163 152l61.887 5.63 92.745 8.437L394 173.012c-.505 1.33-1.016 2.659-1.528 3.988l-75.214-6.847-92.747-8.438-58.538-5.328A391.761 391.761 0 0 0 163 152M155 142l69.877 6.356 92.995 8.454L397 164c-.495 1.33-.99 2.67-1.495 4.001l-78.01-7.094-92.996-8.455-66.368-6.03A338.375 338.375 0 0 0 155 142M148 132l78.264 7.114 93.072 8.468L401 155c-.415 1.171-.84 2.332-1.256 3.463-.07.18-.131.36-.203.537l-80.581-7.324-93.074-8.466-74.49-6.768A246.709 246.709 0 0 0 148 132M140 121l87.33 7.937 92.9 8.443 83.77 7.614c-.455 1.354-.913 2.69-1.372 4.006l-82.775-7.53-92.9-8.444-83.082-7.554A145.524 145.524 0 0 0 140 121M129 111l5.89.528 92.977 8.375 92.978 8.372 86.155 7.76a272.4 272.4 0 0 0-1.418 3.965l-85.116-7.668-92.976-8.374-92.978-8.375-.363-.028A75.315 75.315 0 0 0 129 111M115 100l21.086 1.92 93.07 8.49 93.058 8.49L411 126.996a205.735 205.735 0 0 0-1.56 4.004l-87.601-7.99-93.061-8.488-93.07-8.489-14.09-1.282c-2.101-1.545-4.317-3.13-6.618-4.751M99 89l37.52 3.451 92.887 8.557 92.897 8.548 91.696 8.44a133.75 133.75 0 0 0-1.827 4.004l-90.246-8.303-92.897-8.548-92.888-8.55-30.147-2.777C103.72 92.242 101.388 90.638 99 89M83 78l54.24 5.009 92.98 8.583 92.99 8.584 92.981 8.583 2.809.262a79.411 79.411 0 0 0-2.294 3.979l-.892-.085-92.98-8.583-92.99-8.582-92.98-8.583-46.871-4.326C87.688 81.256 85.353 79.635 83 78M68 68l70.275 6.511 92.805 8.599 92.794 8.602 92.805 8.6 8.321.773a58.293 58.293 0 0 0-3.078 3.915l-5.62-.524-92.804-8.598-92.795-8.602-92.805-8.6-63.217-5.86A719.117 719.117 0 0 1 68 68M54 57l85.617 7.92 92.826 8.584 92.816 8.588 92.815 8.587L435 92.241a46.145 46.145 0 0 0-4.396 3.434 6.805 6.805 0 0 0-.355.325l-12.551-1.162-92.815-8.587-92.817-8.588-92.826-8.585-78.956-7.305A577.886 577.886 0 0 1 54 57M40 47l7.006.64 92.96 8.5 92.962 8.5 92.97 8.502 92.963 8.498L452 84.67c-3.077.914-6.103 2.001-9.038 3.33h-.01l-24.468-2.243-92.962-8.5-92.971-8.499-92.96-8.501-92.971-8.5-.83-.079A312.485 312.485 0 0 1 40 47M28 36l19.936 1.85 92.831 8.597 92.821 8.6 92.823 8.599 92.831 8.596 64.758 6c-4.99 1.055-10.231 1.848-15.536 2.758l-49.598-4.593-92.832-8.598-92.822-8.597-92.821-8.6-92.832-8.597-14.352-1.333A278.012 278.012 0 0 1 28 36M17 26l31.547 2.868 92.902 8.455 92.91 8.456 92.901 8.454 92.902 8.455L509 70.775A182.408 182.408 0 0 1 499.092 74l-79.307-7.216-92.902-8.457-92.902-8.454-92.909-8.454-92.902-8.455-26.582-2.417A240.218 240.218 0 0 1 17 26M8 16l41.827 3.826 92.976 8.497 92.978 8.5 92.986 8.5 92.978 8.5 92.985 8.497L528 63.534c-2.47 1.23-4.967 2.38-7.486 3.466h-.01l-6.16-.56-92.976-8.501-92.978-8.499-92.987-8.499-92.976-8.5L49.45 23.94l-37.454-3.42A188.95 188.95 0 0 1 8 16M0 5l50.635 4.613 92.93 8.47 92.92 8.47 92.92 8.473 92.929 8.47 92.92 8.473L542 54.407A157.491 157.491 0 0 1 536.025 58h-.01l-21.137-1.929-92.921-8.472-92.93-8.47-92.918-8.472-92.921-8.472-92.93-8.47L3.37 9.44A143.867 143.867 0 0 1 0 5M-7-5L51.066.32l92.858 8.505 92.869 8.505 92.86 8.507 92.869 8.506 92.858 8.503L553 46.3a151.843 151.843 0 0 1-4.94 3.7l-33.057-3.034-92.858-8.506-92.869-8.505-92.86-8.505-92.869-8.504L50.69 4.439-4.236-.589A117.037 117.037 0 0 1-7-5M-12-14l64.147 5.83L144.983.269l92.837 8.44 92.846 8.435 92.836 8.439 92.846 8.437L563 38.263A130.822 130.822 0 0 1 558.814 42l-42.842-3.894-92.847-8.436-92.835-8.439-92.847-8.437-92.837-8.44L51.77-4.082l-61.61-5.6A97.4 97.4 0 0 1-12-14M-16-24l68.973 6.347 92.94 8.56 92.931 8.561 92.94 8.559 92.933 8.559 92.932 8.559L572 30.149c-.418.467-.847.936-1.276 1.395A190.07 190.07 0 0 1 568.387 34l-51.115-4.71-92.932-8.558-92.932-8.56-92.94-8.561-92.931-8.557-92.941-8.56-67.02-6.175A99.702 99.702 0 0 1-16-24M-18-34l72.425 6.678 92.93 8.565 92.92 8.561 92.923 8.565 92.93 8.565 92.922 8.564L580 21.112A145.955 145.955 0 0 1 576.805 25l-58.132-5.356-92.922-8.561-92.93-8.565-92.92-8.565-92.931-8.563-92.922-8.564-71.04-6.546A78.315 78.315 0 0 1-18-34M-20-43l74.616 6.783 92.93 8.455 92.938 8.453 92.927 8.454 92.93 8.45 92.938 8.464L586 12.134A197.996 197.996 0 0 1 583.168 16l-64.266-5.846-92.937-8.453-92.93-8.463-92.928-8.454-92.939-8.451-92.929-8.455-73.798-6.714A70.076 70.076 0 0 1-20-43M-20-48.85a63.91 63.91 0 0 1 .108-4.15l75.552 6.922 92.914 8.516 92.913 8.512 92.92 8.516 92.914 8.514 92.911 8.515L592 3.07A222.515 222.515 0 0 1 589.466 7L519.857.618l-92.913-8.516-92.914-8.514-92.92-8.513-92.913-8.516-92.914-8.514L-20-48.85z"/>
    </g>
</svg>
