<svg xmlns="http://www.w3.org/2000/svg" xmlns:xlink="http://www.w3.org/1999/xlink" width="324" height="345" viewBox="0 0 324 345">
    <defs>
        <path id="a" d="M9.851 6.219L.24 36.618a53.605 53.605 0 0 0 4.6-5.359v-.005l7.654-24.2.16-.508a39.683 39.683 0 0 0-.891-6.384L9.851 6.219z"/>
        <linearGradient id="b" x1="98.163%" x2="-182.503%" y1="29.831%" y2="146.354%">
            <stop offset="0%" stop-color="#4BBFB8"/>
            <stop offset="100%" stop-color="#C1F0C8"/>
        </linearGradient>
        <path id="d" d="M12.891 14.331L.2 54.469a88.26 88.26 0 0 0 3.879-3.073l11.455-36.229 3.502-11.08A58.515 58.515 0 0 0 17.422.001l-4.531 14.33z"/>
        <linearGradient id="e" x1="86.259%" x2="-104.516%" y1="34.967%" y2="112.957%">
            <stop offset="0%" stop-color="#4BBFB8"/>
            <stop offset="100%" stop-color="#C1F0C8"/>
        </linearGradient>
        <path id="g" d="M15.925 20.445L.862 68.099a111.77 111.77 0 0 0 3.64-2.328L18.567 21.28l5.644-17.852A77.262 77.262 0 0 0 22.356.099l-6.431 20.346z"/>
        <linearGradient id="h" x1="81.768%" x2="-69.961%" y1="36.728%" y2="99.198%">
            <stop offset="0%" stop-color="#4BBFB8"/>
            <stop offset="100%" stop-color="#C1F0C8"/>
        </linearGradient>
        <path id="j" d="M17.963 25.564L.852 79.699a164.72 164.72 0 0 0 3.517-1.946L20.607 26.4l7.334-23.191c-.636-.965-1.294-1.94-1.988-2.92l-7.99 25.275z"/>
        <linearGradient id="k" x1="79.545%" x2="-49.535%" y1="37.579%" y2="91.073%">
            <stop offset="0%" stop-color="#4BBFB8"/>
            <stop offset="100%" stop-color="#C1F0C8"/>
        </linearGradient>
        <path id="m" d="M19.003 29.677L.156 89.295l-.117.37c1.16-.563 2.309-1.128 3.444-1.701l18.164-57.45L30.402 2.81c-.361-.475-.724-.953-1.097-1.429a58.731 58.731 0 0 0-.974-1.214l-9.328 29.51z"/>
        <linearGradient id="n" x1="78.309%" x2="-35.593%" y1="38.04%" y2="85.504%">
            <stop offset="0%" stop-color="#4BBFB8"/>
            <stop offset="100%" stop-color="#C1F0C8"/>
        </linearGradient>
        <path id="p" d="M21.043 33.791L2.193 93.414.361 99.22c1.14-.509 2.267-1.021 3.389-1.533l1.086-3.437 18.849-59.624 9.993-31.61A76.277 76.277 0 0 0 31.526.63L21.043 33.791z"/>
        <linearGradient id="q" x1="77.635%" x2="-25.36%" y1="38.285%" y2="81.372%">
            <stop offset="0%" stop-color="#4BBFB8"/>
            <stop offset="100%" stop-color="#C1F0C8"/>
        </linearGradient>
        <path id="s" d="M23.075 36.91L4.228 96.527.759 107.493c1.123-.469 2.244-.936 3.356-1.419l2.755-8.711 18.849-59.618L36.776 2.77A103.452 103.452 0 0 0 34.554.598L23.075 36.91z"/>
        <linearGradient id="t" x1="77.306%" x2="-17.407%" y1="38.396%" y2="78.136%">
            <stop offset="0%" stop-color="#4BBFB8"/>
            <stop offset="100%" stop-color="#C1F0C8"/>
        </linearGradient>
        <path id="v" d="M24.115 40.024L5.267 99.641l-5.035 15.93c1.11-.444 2.223-.89 3.33-1.342l4.349-13.753 18.847-59.617L38.73 2.983a98.529 98.529 0 0 0-2.267-2.01L24.115 40.024z"/>
        <linearGradient id="w" x1="77.17%" x2="-10.915%" y1="38.426%" y2="75.495%">
            <stop offset="0%" stop-color="#4BBFB8"/>
            <stop offset="100%" stop-color="#C1F0C8"/>
        </linearGradient>
        <path id="y" d="M26.155 42.137L7.306 101.76.747 122.512c1.105-.433 2.213-.86 3.318-1.295l5.884-18.621 18.849-59.624L41.581 2.544a129.763 129.763 0 0 0-2.32-1.869L26.155 42.137z"/>
        <linearGradient id="z" x1="77.173%" x2="-5.484%" y1="38.404%" y2="73.269%">
            <stop offset="0%" stop-color="#4BBFB8"/>
            <stop offset="100%" stop-color="#C1F0C8"/>
        </linearGradient>
        <path id="B" d="M27.195 44.251L8.346 103.873.287 129.368c1.096-.416 2.198-.838 3.307-1.257l7.395-23.402 18.848-59.617L43.332 2.395A119.764 119.764 0 0 0 40.985.63l-13.79 43.621z"/>
        <linearGradient id="C" x1="77.252%" x2="-.789%" y1="38.349%" y2="71.346%">
            <stop offset="0%" stop-color="#4BBFB8"/>
            <stop offset="100%" stop-color="#C1F0C8"/>
        </linearGradient>
        <path id="E" d="M29.228 46.37L10.38 105.987.825 136.201l3.306-1.253 8.891-28.126 18.849-59.618L46.015 2.462A164.01 164.01 0 0 0 43.638.779L29.228 46.37z"/>
        <linearGradient id="F" x1="77.382%" x2="3.34%" y1="38.275%" y2="69.644%">
            <stop offset="0%" stop-color="#4BBFB8"/>
            <stop offset="100%" stop-color="#C1F0C8"/>
        </linearGradient>
        <path id="H" d="M30.268 47.482L11.419 107.1.365 142.057l3.309-1.271 10.388-32.851L32.91 48.318l14.739-46.61c-.801-.546-1.596-1.09-2.399-1.624L30.268 47.482z"/>
        <linearGradient id="I" x1="77.529%" x2="7.04%" y1="38.196%" y2="68.116%">
            <stop offset="0%" stop-color="#4BBFB8"/>
            <stop offset="100%" stop-color="#C1F0C8"/>
        </linearGradient>
        <path id="K" d="M32.308 49.596l-18.85 59.623L.881 149.005c1.092-.442 2.197-.882 3.32-1.32l11.901-37.63L34.95 50.432 50.239 2.08A432.114 432.114 0 0 0 47.826.504L32.308 49.596z"/>
        <linearGradient id="L" x1="77.67%" x2="10.417%" y1="38.116%" y2="66.721%">
            <stop offset="0%" stop-color="#4BBFB8"/>
            <stop offset="100%" stop-color="#C1F0C8"/>
        </linearGradient>
        <path id="N" d="M33.345 51.716l-18.847 59.618L.332 156.13c1.104-.472 2.22-.948 3.36-1.414l13.449-42.548L35.99 52.551l15.813-50.01c-.805-.522-1.617-1.038-2.422-1.553L33.345 51.716z"/>
        <linearGradient id="O" x1="77.792%" x2="13.536%" y1="38.047%" y2="65.428%">
            <stop offset="0%" stop-color="#4BBFB8"/>
            <stop offset="100%" stop-color="#C1F0C8"/>
        </linearGradient>
        <path id="Q" d="M35.386 52.83l-18.854 59.616-15.85 50.13a168.695 168.695 0 0 1 3.409-1.581l15.084-47.713 18.854-59.617L54.348 2.048c-.107-.071-.217-.137-.325-.209-.686-.435-1.391-.878-2.1-1.318L35.386 52.83z"/>
        <linearGradient id="R" x1="77.87%" x2="16.467%" y1="37.996%" y2="64.209%">
            <stop offset="0%" stop-color="#4BBFB8"/>
            <stop offset="100%" stop-color="#C1F0C8"/>
        </linearGradient>
        <path id="T" d="M37.42 53.941l-18.85 59.624-17.717 56.05a99.007 99.007 0 0 1 3.502-1.892l16.859-53.322 18.849-59.624L56.861 1.651c-.803-.488-1.618-.98-2.446-1.474L37.42 53.941z"/>
        <linearGradient id="U" x1="77.89%" x2="19.27%" y1="37.97%" y2="63.041%">
            <stop offset="0%" stop-color="#4BBFB8"/>
            <stop offset="100%" stop-color="#C1F0C8"/>
        </linearGradient>
        <path id="W" d="M39.458 56.062L20.61 115.679 1.762 175.296l-1.193 3.777a51.245 51.245 0 0 1 3.765-2.709l.072-.233 18.847-59.617 18.848-59.618L59.357 2.321c-.808-.489-1.622-.993-2.435-1.503L39.458 56.062z"/>
        <linearGradient id="X" x1="77.727%" x2="22.134%" y1="38.018%" y2="61.849%">
            <stop offset="0%" stop-color="#4BBFB8"/>
            <stop offset="100%" stop-color="#C1F0C8"/>
        </linearGradient>
        <path id="Z" d="M42.498 57.175l-18.849 59.618-18.848 59.623-4.27 13.508a272.164 272.164 0 0 1 4.061-3.645l2.852-9.028 18.849-59.622L45.141 58.01 62.882 1.889c-.805-.52-1.608-1.055-2.404-1.592l-17.98 56.878z"/>
        <linearGradient id="aa" x1="77.272%" x2="25.169%" y1="38.185%" y2="60.586%">
            <stop offset="0%" stop-color="#4BBFB8"/>
            <stop offset="100%" stop-color="#C1F0C8"/>
        </linearGradient>
        <path id="ac" d="M45.538 59.288l-18.849 59.624-18.855 59.617L.223 202.61a975.404 975.404 0 0 1 4.14-3.897l6.12-19.348 18.849-59.617 18.849-59.623L66.492 2.202A85.53 85.53 0 0 1 64.146.435L45.538 59.288z"/>
        <linearGradient id="ad" x1="76.721%" x2="28.006%" y1="38.393%" y2="59.404%">
            <stop offset="0%" stop-color="#4BBFB8"/>
            <stop offset="100%" stop-color="#C1F0C8"/>
        </linearGradient>
        <path id="af" d="M68.42 2.783L49.571 62.401l-18.848 59.623-18.849 59.618L.877 216.42c1.398-1.309 2.784-2.606 4.141-3.889l9.499-30.054 18.848-59.617 18.85-59.624L71.063 3.62l.182-.573A52.187 52.187 0 0 1 68.992.983l-.572 1.8z"/>
        <linearGradient id="ag" x1="76.119%" x2="30.563%" y1="38.621%" y2="58.339%">
            <stop offset="0%" stop-color="#4BBFB8"/>
            <stop offset="100%" stop-color="#C1F0C8"/>
        </linearGradient>
        <path id="ai" d="M71.46 5.898L52.611 65.521l-18.849 59.617-18.849 59.623-14.272 45.15a499.04 499.04 0 0 0 4.074-3.699l12.841-40.615 18.849-59.623 18.849-59.617L74.103 6.733l1.143-3.61A38.514 38.514 0 0 1 73.151.552L71.46 5.898z"/>
        <linearGradient id="aj" x1="75.452%" x2="32.838%" y1="38.873%" y2="57.394%">
            <stop offset="0%" stop-color="#4BBFB8"/>
            <stop offset="100%" stop-color="#C1F0C8"/>
        </linearGradient>
        <path id="al" d="M74.498 11.017L55.65 70.634l-18.848 59.618-18.849 59.624L.568 244.868a386.101 386.101 0 0 0 3.994-3.442l16.034-50.716 18.849-59.622L58.293 71.47l18.849-59.617 2.551-8.06a3.505 3.505 0 0 1-.161-.28A31.251 31.251 0 0 1 77.934.146l-3.436 10.871z"/>
        <linearGradient id="am" x1="74.599%" x2="34.899%" y1="39.194%" y2="56.552%">
            <stop offset="0%" stop-color="#4BBFB8"/>
            <stop offset="100%" stop-color="#C1F0C8"/>
        </linearGradient>
        <path id="ao" d="M77.538 22.131L58.689 81.747l-18.848 59.625-18.849 59.616-18.847 59.618-1.42 4.493a206.615 206.615 0 0 0 3.891-3.121l.17-.53 18.85-59.624 18.849-59.617 18.848-59.624 18.848-59.616 4.965-15.692.001-.006a47.33 47.33 0 0 1-.89-6.39l-6.719 21.252z"/>
        <linearGradient id="ap" x1="73.208%" x2="36.872%" y1="39.707%" y2="55.785%">
            <stop offset="0%" stop-color="#4BBFB8"/>
            <stop offset="100%" stop-color="#C1F0C8"/>
        </linearGradient>
        <path id="ar" d="M79.572 42.243l-18.85 59.623-18.848 59.618-18.847 59.617-18.85 59.623-4.05 12.805a189.685 189.685 0 0 0 3.777-2.751l2.916-9.218 18.849-59.623 18.849-59.618 18.849-59.617 18.848-59.624 10.071-31.854c.169-3.607.405-7.153.436-10.573l-13.15 41.592z"/>
        <linearGradient id="as" x1="71.077%" x2="38.641%" y1="40.575%" y2="55.079%">
            <stop offset="0%" stop-color="#4BBFB8"/>
            <stop offset="100%" stop-color="#C1F0C8"/>
        </linearGradient>
        <path id="au" d="M82.61 57.363L63.762 116.98l-18.848 59.617-18.849 59.624-18.849 59.617-6.398 20.245c1.22-.76 2.437-1.547 3.651-2.351l5.392-17.059 18.847-59.617 18.85-59.623 18.847-59.617 18.849-59.618 16.091-50.894c-.172-2.32-.406-4.637-.71-6.951L82.61 57.363z"/>
        <linearGradient id="av" x1="70.037%" x2="39.735%" y1="41.087%" y2="54.542%">
            <stop offset="0%" stop-color="#4BBFB8"/>
            <stop offset="100%" stop-color="#C1F0C8"/>
        </linearGradient>
        <path id="ax" d="M103.5 8.853L84.65 68.476l-18.848 59.618-18.849 59.623-18.849 59.618-18.847 59.616-8.479 26.82a123.674 123.674 0 0 0 3.531-1.969l7.59-24.014 18.849-59.618 18.848-59.618 18.849-59.623 18.849-59.617 18.849-59.617 1.248-3.95v-.006a99.871 99.871 0 0 0-1.202-5.394L103.5 8.853z"/>
        <linearGradient id="ay" x1="69.468%" x2="40.653%" y1="41.367%" y2="54.107%">
            <stop offset="0%" stop-color="#4BBFB8"/>
            <stop offset="100%" stop-color="#C1F0C8"/>
        </linearGradient>
        <path id="aA" d="M104.538 17.973L85.691 77.59l-18.85 59.624-18.848 59.616-18.848 59.617-18.85 59.623L.028 348.559a98.418 98.418 0 0 0 3.4-1.569l9.51-30.083 18.85-59.624 18.848-59.616 18.848-59.617 18.85-59.624 18.848-59.618 4.291-13.561v-.006a106.447 106.447 0 0 0-1.509-4.428l-5.426 17.16z"/>
        <linearGradient id="aB" x1="69.147%" x2="41.456%" y1="41.523%" y2="53.738%">
            <stop offset="0%" stop-color="#4BBFB8"/>
            <stop offset="100%" stop-color="#C1F0C8"/>
        </linearGradient>
        <path id="aD" d="M106.572 25.085L87.724 84.703l-18.849 59.622-18.849 59.618-18.848 59.624-18.849 59.617L.542 360.462a77.51 77.51 0 0 0 3.283-1.181l11.148-35.262 18.847-59.617 18.85-59.623 18.847-59.618 18.85-59.623 18.849-59.617 6.714-21.223a98.693 98.693 0 0 0-1.718-3.764l-7.64 24.151z"/>
        <linearGradient id="aE" x1="68.992%" x2="42.169%" y1="41.6%" y2="53.416%">
            <stop offset="0%" stop-color="#4BBFB8"/>
            <stop offset="100%" stop-color="#C1F0C8"/>
        </linearGradient>
        <path id="aG" d="M107.613 30.199l-18.85 59.623-18.849 59.618-18.848 59.623-18.849 59.617-18.848 59.618L.346 369.49a67.177 67.177 0 0 0 3.158-.793l12.507-39.564 18.849-59.617 18.849-59.618 18.849-59.623 18.848-59.617 18.849-59.623 8.698-27.512a88.667 88.667 0 0 0-1.867-3.282l-9.473 29.958z"/>
        <linearGradient id="aH" x1="68.95%" x2="42.811%" y1="41.624%" y2="53.128%">
            <stop offset="0%" stop-color="#4BBFB8"/>
            <stop offset="100%" stop-color="#C1F0C8"/>
        </linearGradient>
        <path id="aJ" d="M108.65 35.319L89.803 94.936l-18.849 59.617-18.848 59.624-18.849 59.617-18.849 59.623L.421 377.664a65.743 65.743 0 0 0 3.035-.417l13.595-42.994L35.9 274.63l18.848-59.618 18.85-59.624 18.848-59.617 18.848-59.617 10.368-32.792c-.415-.627-.836-1.255-1.264-1.878a68.301 68.301 0 0 0-.725-1.034L108.65 35.319z"/>
        <linearGradient id="aK" x1="68.997%" x2="43.394%" y1="41.61%" y2="52.872%">
            <stop offset="0%" stop-color="#4BBFB8"/>
            <stop offset="100%" stop-color="#C1F0C8"/>
        </linearGradient>
        <path id="aM" d="M109.69 39.432L90.842 99.049l-18.849 59.623-18.849 59.617-18.847 59.618-18.849 59.623L.755 384H1.433c.751 0 1.5-.019 2.249-.056l14.409-45.579 18.848-59.616 18.849-59.624 18.849-59.617 18.849-59.623 18.848-59.618 11.789-37.296a93.383 93.383 0 0 0-2.071-2.644L109.69 39.432z"/>
        <linearGradient id="aN" x1="69.113%" x2="43.931%" y1="41.605%" y2="52.677%">
            <stop offset="0%" stop-color="#4BBFB8"/>
            <stop offset="100%" stop-color="#C1F0C8"/>
        </linearGradient>
        <path id="aP" d="M109.73 43.545l-18.855 59.623-18.848 59.618-18.848 59.617-18.85 59.623-18.847 59.617L.35 389.513c.935.128 1.867.238 2.806.31l14.968-47.344 18.849-59.617 18.848-59.624L74.67 163.62l18.854-59.616 18.85-59.623 13.034-41.228a127.23 127.23 0 0 0-2.142-2.41L109.73 43.545z"/>
        <linearGradient id="aQ" x1="69.258%" x2="44.435%" y1="41.542%" y2="52.46%">
            <stop offset="0%" stop-color="#4BBFB8"/>
            <stop offset="100%" stop-color="#C1F0C8"/>
        </linearGradient>
        <path id="aS" d="M109.764 46.665l-18.849 59.617-18.849 59.617-18.849 59.623-18.847 59.617-18.849 59.618L.197 393.235a40.98 40.98 0 0 0 2.699.662l15.268-48.305 18.849-59.617 18.848-59.617 18.849-59.624 18.847-59.617 18.849-59.618 14.123-44.665A144.446 144.446 0 0 0 124.32.615l-14.556 46.05z"/>
        <linearGradient id="aT" x1="69.448%" x2="44.905%" y1="41.45%" y2="52.251%">
            <stop offset="0%" stop-color="#4BBFB8"/>
            <stop offset="100%" stop-color="#C1F0C8"/>
        </linearGradient>
        <path id="aV" d="M109.803 49.778l-18.848 59.617-18.85 59.623-18.848 59.617-18.848 59.618-18.85 59.623L.284 396.193c.864.367 1.727.698 2.593 1.003l15.327-48.484 18.848-59.623L55.9 229.471l18.849-59.617 18.848-59.623 18.849-59.617 15.071-47.661A110.59 110.59 0 0 0 125.25.925l-15.447 48.853z"/>
        <linearGradient id="aW" x1="69.69%" x2="45.344%" y1="41.336%" y2="52.056%">
            <stop offset="0%" stop-color="#4BBFB8"/>
            <stop offset="100%" stop-color="#C1F0C8"/>
        </linearGradient>
        <path id="aY" d="M109.843 51.891l-18.85 59.624-18.847 59.617-18.849 59.617-18.849 59.623L15.6 349.99.607 397.412c.825.467 1.654.911 2.486 1.324l15.149-47.911 18.849-59.617 18.849-59.624 18.848-59.617 18.849-59.617 18.849-59.623 15.886-50.256a130.359 130.359 0 0 0-2.313-1.873l-16.216 51.293z"/>
        <linearGradient id="aZ" x1="69.977%" x2="45.757%" y1="41.202%" y2="51.872%">
            <stop offset="0%" stop-color="#4BBFB8"/>
            <stop offset="100%" stop-color="#C1F0C8"/>
        </linearGradient>
        <path id="bb" d="M108.883 54.004l-18.849 59.624-18.849 59.618-18.855 59.621-18.849 59.618-18.848 59.617L.156 397.895a53.824 53.824 0 0 0 2.389 1.648l14.732-46.605 18.848-59.617 18.847-59.618 18.856-59.623 18.849-59.617 18.849-59.623L128.12 2.348a102.475 102.475 0 0 0-2.359-1.726l-16.878 53.382z"/>
        <linearGradient id="bc" x1="70.311%" x2="46.149%" y1="41.049%" y2="51.698%">
            <stop offset="0%" stop-color="#4BBFB8"/>
            <stop offset="100%" stop-color="#C1F0C8"/>
        </linearGradient>
        <path id="be" d="M108.915 56.124l-18.848 59.617-18.849 59.623-18.849 59.618L33.521 294.6l-18.849 59.622L.929 397.688a69.669 69.669 0 0 0 2.288 1.951l14.098-44.582 18.849-59.623 18.848-59.617L73.861 176.2l18.849-59.623 18.849-59.618 17.2-54.415a92.134 92.134 0 0 0-2.404-1.58l-17.44 55.16z"/>
        <linearGradient id="bf" x1="70.69%" x2="46.524%" y1="40.875%" y2="51.531%">
            <stop offset="0%" stop-color="#4BBFB8"/>
            <stop offset="100%" stop-color="#C1F0C8"/>
        </linearGradient>
        <path id="bh" d="M107.955 57.237l-18.848 59.617-18.849 59.624-18.849 59.617-18.848 59.623-18.849 59.617L.918 395.8a74.67 74.67 0 0 0 2.197 2.25l13.239-41.879 18.849-59.617 18.85-59.624L72.9 177.313l18.85-59.623 18.848-59.617 17.714-56.02c-.81-.49-1.626-.976-2.448-1.456l-17.909 56.64z"/>
        <linearGradient id="bi" x1="71.115%" x2="46.883%" y1="40.682%" y2="51.37%">
            <stop offset="0%" stop-color="#4BBFB8"/>
            <stop offset="100%" stop-color="#C1F0C8"/>
        </linearGradient>
        <path id="bk" d="M105.995 58.351l-18.85 59.623-18.848 59.617-18.847 59.617-18.85 59.623-18.848 59.618L.114 393.256c.699.868 1.4 1.717 2.105 2.536l12.176-38.508 18.848-59.617 18.848-59.617 18.85-59.623 18.848-59.618 18.849-59.623 18.127-57.332c-.826-.455-1.656-.9-2.484-1.336l-18.286 57.833z"/>
        <linearGradient id="bl" x1="71.588%" x2="47.231%" y1="40.468%" y2="51.215%">
            <stop offset="0%" stop-color="#4BBFB8"/>
            <stop offset="100%" stop-color="#C1F0C8"/>
        </linearGradient>
        <path id="bn" d="M105.033 59.47l-18.848 59.617-18.848 59.618-18.849 59.623-18.849 59.618-18.855 59.622L.509 390.067a131.07 131.07 0 0 0 2.014 2.816l10.905-34.479 18.856-59.623 18.847-59.618 18.85-59.622 18.847-59.618 18.848-59.617 18.459-58.383a99.13 99.13 0 0 0-2.527-1.21L105.033 59.47z"/>
        <linearGradient id="bo" x1="72.114%" x2="47.57%" y1="40.231%" y2="51.063%">
            <stop offset="0%" stop-color="#4BBFB8"/>
            <stop offset="100%" stop-color="#C1F0C8"/>
        </linearGradient>
        <path id="bq" d="M103.067 59.583L84.218 119.2 65.37 178.824l-18.848 59.617-18.849 59.617-18.848 59.623L.113 385.24c.63 1.045 1.266 2.086 1.923 3.109l9.431-29.832 18.849-59.624 18.849-59.617 18.848-59.617 18.85-59.623 18.847-59.617 18.702-59.164c-.849-.378-1.701-.745-2.555-1.104l-18.79 59.432z"/>
        <linearGradient id="br" x1="72.688%" x2="47.904%" y1="39.971%" y2="50.914%">
            <stop offset="0%" stop-color="#4BBFB8"/>
            <stop offset="100%" stop-color="#C1F0C8"/>
        </linearGradient>
        <path id="bt" d="M120.955 1.079l-18.848 59.617-18.849 59.624-18.849 59.617-18.848 59.617-18.849 59.623-18.847 59.617-6.962 22.024v.006a227.762 227.762 0 0 0 1.845 3.347l7.759-24.541 18.849-59.616 18.848-59.624 18.849-59.617 18.848-59.618 18.849-59.624 18.848-59.616.023-.071a95.628 95.628 0 0 0-2.596-.992l-.07.227z"/>
        <linearGradient id="bu" x1="73.328%" x2="48.232%" y1="39.685%" y2="50.767%">
            <stop offset="0%" stop-color="#4BBFB8"/>
            <stop offset="100%" stop-color="#C1F0C8"/>
        </linearGradient>
        <path id="bw" d="M118.995 1.193l-18.849 59.623-18.848 59.617-18.849 59.617L43.6 239.674l-18.848 59.617-18.849 59.618L.79 375.071v.006c.601 1.147 1.21 2.295 1.817 3.449l5.94-18.782 18.848-59.618 18.848-59.617 18.849-59.623 18.848-59.617 18.849-59.618 18.85-59.623.113-.358c-.874-.301-1.748-.594-2.631-.877l-.126.4z"/>
        <linearGradient id="bx" x1="74.037%" x2="48.563%" y1="39.373%" y2="50.619%">
            <stop offset="0%" stop-color="#4BBFB8"/>
            <stop offset="100%" stop-color="#C1F0C8"/>
        </linearGradient>
        <path id="bz" d="M117.035 1.306L98.186 60.929l-18.848 59.618-18.85 59.624-18.848 59.617-18.848 59.617-18.85 59.623-3.373 10.655 1.885 3.247 4.132-13.066 18.848-59.624 18.849-59.617 18.849-59.618 18.848-59.623 18.849-59.617 18.849-59.623.126-.393a99.563 99.563 0 0 0-2.665-.777l-.104.334z"/>
        <linearGradient id="bA" x1="74.808%" x2="48.912%" y1="39.044%" y2="50.465%">
            <stop offset="0%" stop-color="#4BBFB8"/>
            <stop offset="100%" stop-color="#C1F0C8"/>
        </linearGradient>
        <path id="bC" d="M115.068.426L96.22 60.043l-18.85 59.623-18.849 59.617L39.674 238.9l-18.85 59.623-18.848 59.618-1.592 5.041c.593 1.121 1.21 2.257 1.831 3.401l2.405-7.607 18.847-59.617 18.849-59.623 18.849-59.617 18.849-59.617 18.848-59.624L117.711 1.26l.066-.202c-.902-.229-1.8-.452-2.698-.669l-.011.037z"/>
        <linearGradient id="bD" x1="75.584%" x2="49.279%" y1="38.701%" y2="50.301%">
            <stop offset="0%" stop-color="#4BBFB8"/>
            <stop offset="100%" stop-color="#C1F0C8"/>
        </linearGradient>
        <path id="bF" d="M94.259 59.156L75.41 118.778l-18.848 59.618-18.849 59.624-18.849 59.617L.315 356.299c.587 1.17 1.179 2.346 1.793 3.539l.551-1.749 18.849-59.617 18.847-59.617 18.85-59.623 18.848-59.617 18.849-59.624L115.673.612c-.908-.193-1.817-.379-2.726-.56L94.259 59.156z"/>
        <linearGradient id="bG" x1="76.432%" x2="49.654%" y1="38.327%" y2="50.134%">
            <stop offset="0%" stop-color="#4BBFB8"/>
            <stop offset="100%" stop-color="#C1F0C8"/>
        </linearGradient>
        <path id="bI" d="M92.298 59.275l-18.849 59.617-18.847 59.617-18.85 59.624-18.848 59.618-16.49 52.153a197.952 197.952 0 0 0 1.705 3.801l17.428-55.119 18.849-59.618 18.848-59.617 18.849-59.623 18.849-59.617 18.553-58.7a107.24 107.24 0 0 0-2.761-.452L92.298 59.275z"/>
        <linearGradient id="bJ" x1="77.346%" x2="50.038%" y1="37.919%" y2="49.962%">
            <stop offset="0%" stop-color="#4BBFB8"/>
            <stop offset="100%" stop-color="#C1F0C8"/>
        </linearGradient>
        <path id="bL" d="M90.338 57.389l-18.849 59.618L52.64 176.63l-18.848 59.617-18.85 59.623L.797 340.619l-.002.012a109.79 109.79 0 0 0 1.559 4.255l15.232-48.18 18.85-59.623 18.848-59.618 18.849-59.623L92.98 58.224 111.245.457c-.936-.128-1.868-.238-2.8-.347L90.338 57.389z"/>
        <linearGradient id="bM" x1="78.346%" x2="50.426%" y1="37.465%" y2="49.786%">
            <stop offset="0%" stop-color="#4BBFB8"/>
            <stop offset="100%" stop-color="#C1F0C8"/>
        </linearGradient>
        <path id="bO" d="M87.371 56.501l-18.848 59.624-18.849 59.617-18.848 59.616-18.849 59.624L.716 330.596a83.95 83.95 0 0 0 1.268 5.192l12.636-39.97 18.849-59.623 18.849-59.617 18.847-59.617 18.85-59.624L107.908.757a85.373 85.373 0 0 0-2.842-.227L87.371 56.501z"/>
        <linearGradient id="bP" x1="79.463%" x2="50.807%" y1="36.939%" y2="49.61%">
            <stop offset="0%" stop-color="#4BBFB8"/>
            <stop offset="100%" stop-color="#C1F0C8"/>
        </linearGradient>
        <path id="bR" d="M82.41 54.621l-18.849 59.618-18.847 59.617-18.85 59.623-18.847 59.617-6.868 21.723-.002.014c-.04 2.713.087 5.389.358 8.049l9.154-28.95 18.849-59.617 18.849-59.624 18.849-59.618 18.847-59.616L102.484.314c-.96-.045-1.915-.082-2.871-.108L82.41 54.621z"/>
        <linearGradient id="bS" x1="80.661%" x2="51.126%" y1="36.278%" y2="49.443%">
            <stop offset="0%" stop-color="#4BBFB8"/>
            <stop offset="100%" stop-color="#C1F0C8"/>
        </linearGradient>
        <path id="bU" d="M89.065.182L72.45 52.735l-18.848 59.617-18.849 59.623-18.849 59.617-12.485 39.493-.001.005-.002.013c-.448 5.843-1.301 11.689-2.652 17.564l17.784-56.239 18.847-59.617 18.85-59.624L75.093 53.57 91.982.159c-.249-.004-.499-.004-.748-.004-.723 0-1.447.01-2.169.027"/>
        <linearGradient id="bV" x1="84.024%" x2="51.096%" y1="34.72%" y2="49.444%">
            <stop offset="0%" stop-color="#4BBFB8"/>
            <stop offset="100%" stop-color="#C1F0C8"/>
        </linearGradient>
        <path id="bX" d="M79.42.461L63.49 50.849l-18.849 59.622-18.849 59.618-18.848 59.617-6.5 20.567c.176 2.714.291 5.425.332 8.138l8.811-27.869 18.848-59.617 18.849-59.618 18.849-59.623L82.382.295c-.991.037-1.979.095-2.962.166"/>
        <linearGradient id="bY" x1="88.165%" x2="51.211%" y1="32.964%" y2="49.421%">
            <stop offset="0%" stop-color="#4BBFB8"/>
            <stop offset="100%" stop-color="#C1F0C8"/>
        </linearGradient>
        <path id="ca" d="M74.67 1.075L59.528 48.967l-18.854 59.617-18.848 59.617-18.85 59.624-2.174 6.885-.001.007c.309 2.189.587 4.375.828 6.556l3.991-12.612 18.848-59.625 18.849-59.616 18.855-59.616L77.679.753a90.685 90.685 0 0 0-3.009.322"/>
        <linearGradient id="cb" x1="91.631%" x2="51.7%" y1="31.589%" y2="49.251%">
            <stop offset="0%" stop-color="#4BBFB8"/>
            <stop offset="100%" stop-color="#C1F0C8"/>
        </linearGradient>
        <path id="cd" d="M69.798 1.057L55.563 46.08l-18.849 59.618-18.849 59.622L.55 220.087c.366 1.968.714 3.927 1.044 5.889l.066-.202 18.848-59.618 18.849-59.624 18.849-59.617L72.855.574a91.806 91.806 0 0 0-3.057.483"/>
        <linearGradient id="ce" x1="95.085%" x2="52.322%" y1="30.163%" y2="49.009%">
            <stop offset="0%" stop-color="#4BBFB8"/>
            <stop offset="100%" stop-color="#C1F0C8"/>
        </linearGradient>
        <path id="cg" d="M64.796 1.464l-13.193 41.73-18.849 59.617-18.849 59.623-13.88 43.901c.385 1.871.773 3.73 1.142 5.585l15.381-48.65 18.849-59.617L54.245 44.03 67.919.785c-1.047.211-2.09.435-3.123.679"/>
        <linearGradient id="ch" x1="98.831%" x2="53.066%" y1="28.571%" y2="48.69%">
            <stop offset="0%" stop-color="#4BBFB8"/>
            <stop offset="100%" stop-color="#C1F0C8"/>
        </linearGradient>
        <path id="cj" d="M60.635 1.372L48.641 39.307 29.793 98.932l-18.848 59.616L.382 191.955c.398 1.828.791 3.655 1.179 5.472l12.027-38.043 18.848-59.618 18.85-59.623L63.83.453c-1.071.296-2.138.597-3.195.919"/>
        <linearGradient id="ck" x1="103.088%" x2="53.95%" y1="26.742%" y2="48.308%">
            <stop offset="0%" stop-color="#4BBFB8"/>
            <stop offset="100%" stop-color="#C1F0C8"/>
        </linearGradient>
        <path id="cm" d="M56.288 1.877l-10.607 33.55-18.849 59.617-18.848 59.618-7.239 22.886-.001.006c.388 1.847.774 3.68 1.164 5.514l8.719-27.572 18.848-59.617 18.849-59.616L59.573.684a95.132 95.132 0 0 0-3.285 1.193"/>
        <linearGradient id="cn" x1="108.147%" x2="55.005%" y1="24.56%" y2="47.851%">
            <stop offset="0%" stop-color="#4BBFB8"/>
            <stop offset="100%" stop-color="#C1F0C8"/>
        </linearGradient>
        <path id="cp" d="M50.688 2.145l-8.973 28.394-18.849 59.618-18.85 59.623-3.777 11.951-.002.013c.347 1.928.708 3.844 1.081 5.756l5.342-16.885 18.849-59.622 18.849-59.618L54.087.593a82.47 82.47 0 0 0-3.399 1.552"/>
        <linearGradient id="cq" x1="114.372%" x2="56.281%" y1="21.84%" y2="47.294%">
            <stop offset="0%" stop-color="#4BBFB8"/>
            <stop offset="100%" stop-color="#C1F0C8"/>
        </linearGradient>
        <path id="cs" d="M44.792 2.392l-7.038 22.261-18.849 59.624L.056 143.894l-.046.149v.006c.295 2.069.607 4.142.941 6.205l1.75-5.525 18.847-59.617 18.849-59.623L48.338.375a96.04 96.04 0 0 0-3.546 2.017"/>
        <linearGradient id="ct" x1="122.554%" x2="57.909%" y1="18.235%" y2="46.577%">
            <stop offset="0%" stop-color="#4BBFB8"/>
            <stop offset="100%" stop-color="#C1F0C8"/>
        </linearGradient>
        <path id="cv" d="M38.474 2.97l-4.681 14.803L14.944 77.39.204 124.018l-.001.007c.22 2.289.465 4.576.735 6.861l16.65-52.661 18.848-59.617L42.228.292a88.657 88.657 0 0 0-3.754 2.678"/>
        <linearGradient id="cw" x1="134.136%" x2="60.095%" y1="13.077%" y2="45.605%">
            <stop offset="0%" stop-color="#4BBFB8"/>
            <stop offset="100%" stop-color="#C1F0C8"/>
        </linearGradient>
        <path id="cy" d="M30.467 4.726l-.007.005-1.627 5.155L9.985 69.503l-9.898 31.3-.002.013c.082 2.643.21 5.307.388 7.971l12.155-38.448 18.848-59.617L34.568.93a86.741 86.741 0 0 0-4.101 3.796"/>
        <linearGradient id="cz" x1="152.437%" x2="63.369%" y1="4.729%" y2="44.114%">
            <stop offset="0%" stop-color="#4BBFB8"/>
            <stop offset="100%" stop-color="#C1F0C8"/>
        </linearGradient>
        <path id="cB" d="M19.948 7.235L4.018 57.622.47 68.845C.212 72.37.06 75.935 0 79.525l6.66-21.068L24.902.756a86.325 86.325 0 0 0-4.954 6.479"/>
        <linearGradient id="cC" x1="190.352%" x2="69.755%" y1="-12.763%" y2="41.166%">
            <stop offset="0%" stop-color="#4BBFB8"/>
            <stop offset="100%" stop-color="#C1F0C8"/>
        </linearGradient>
        <path id="cE" d="M.012 28.25L8.767.566C4.753 9.208 1.901 18.503.012 28.25"/>
        <linearGradient id="cF" x1="454.398%" x2="111.148%" y1="-130.778%" y2="22.665%">
            <stop offset="0%" stop-color="#4BBFB8"/>
            <stop offset="100%" stop-color="#C1F0C8"/>
        </linearGradient>
    </defs>
    <g fill="none" fill-rule="evenodd">
        <g transform="rotate(106 -123.046 168.44)">
            <mask id="c" fill="#fff">
                <use xlink:href="#a"/>
            </mask>
            <path fill="url(#b)" d="M9.851 6.219L.24 36.618a53.605 53.605 0 0 0 4.6-5.359v-.005l7.654-24.2.16-.508a39.683 39.683 0 0 0-.891-6.384L9.851 6.219z" mask="url(#c)"/>
        </g>
        <g transform="rotate(106 -114.778 170.049)">
            <mask id="f" fill="#fff">
                <use xlink:href="#d"/>
            </mask>
            <path fill="url(#e)" d="M12.891 14.331L.2 54.469a88.26 88.26 0 0 0 3.879-3.073l11.455-36.229 3.502-11.08A58.515 58.515 0 0 0 17.422.001l-4.531 14.33z" mask="url(#f)"/>
        </g>
        <g transform="rotate(106 -107.264 170.658)">
            <mask id="i" fill="#fff">
                <use xlink:href="#g"/>
            </mask>
            <path fill="url(#h)" d="M15.925 20.445L.862 68.099a111.77 111.77 0 0 0 3.64-2.328L18.567 21.28l5.644-17.852A77.262 77.262 0 0 0 22.356.099l-6.431 20.346z" mask="url(#i)"/>
        </g>
        <g transform="rotate(106 -100.626 171.143)">
            <mask id="l" fill="#fff">
                <use xlink:href="#j"/>
            </mask>
            <path fill="url(#k)" d="M17.963 25.564L.852 79.699a164.72 164.72 0 0 0 3.517-1.946L20.607 26.4l7.334-23.191c-.636-.965-1.294-1.94-1.988-2.92l-7.99 25.275z" mask="url(#l)"/>
        </g>
        <g transform="rotate(106 -94.865 171.506)">
            <mask id="o" fill="#fff">
                <use xlink:href="#m"/>
            </mask>
            <path fill="url(#n)" d="M19.003 29.677L.156 89.295l-.117.37c1.16-.563 2.309-1.128 3.444-1.701l18.164-57.45L30.402 2.81c-.361-.475-.724-.953-1.097-1.429a58.731 58.731 0 0 0-.974-1.214l-9.328 29.51z" mask="url(#o)"/>
        </g>
        <g transform="rotate(106 -88.605 171.492)">
            <mask id="r" fill="#fff">
                <use xlink:href="#p"/>
            </mask>
            <path fill="url(#q)" d="M21.043 33.791L2.193 93.414.361 99.22c1.14-.509 2.267-1.021 3.389-1.533l1.086-3.437 18.849-59.624 9.993-31.61A76.277 76.277 0 0 0 31.526.63L21.043 33.791z" mask="url(#r)"/>
        </g>
        <g transform="rotate(106 -82.721 170.978)">
            <mask id="u" fill="#fff">
                <use xlink:href="#s"/>
            </mask>
            <path fill="url(#t)" d="M23.075 36.91L4.228 96.527.759 107.493c1.123-.469 2.244-.936 3.356-1.419l2.755-8.711 18.849-59.618L36.776 2.77A103.452 103.452 0 0 0 34.554.598L23.075 36.91z" mask="url(#u)"/>
        </g>
        <g transform="rotate(106 -77.337 170.84)">
            <mask id="x" fill="#fff">
                <use xlink:href="#v"/>
            </mask>
            <path fill="url(#w)" d="M24.115 40.024L5.267 99.641l-5.035 15.93c1.11-.444 2.223-.89 3.33-1.342l4.349-13.753 18.847-59.617L38.73 2.983a98.529 98.529 0 0 0-2.267-2.01L24.115 40.024z" mask="url(#x)"/>
        </g>
        <g transform="rotate(106 -71.83 169.826)">
            <mask id="A" fill="#fff">
                <use xlink:href="#y"/>
            </mask>
            <path fill="url(#z)" d="M26.155 42.137L7.306 101.76.747 122.512c1.105-.433 2.213-.86 3.318-1.295l5.884-18.621 18.849-59.624L41.581 2.544a129.763 129.763 0 0 0-2.32-1.869L26.155 42.137z" mask="url(#A)"/>
        </g>
        <g transform="rotate(106 -66.823 169.189)">
            <mask id="D" fill="#fff">
                <use xlink:href="#B"/>
            </mask>
            <path fill="url(#C)" d="M27.195 44.251L8.346 103.873.287 129.368c1.096-.416 2.198-.838 3.307-1.257l7.395-23.402 18.848-59.617L43.332 2.395A119.764 119.764 0 0 0 40.985.63l-13.79 43.621z" mask="url(#D)"/>
        </g>
        <g transform="rotate(106 -61.316 168.174)">
            <mask id="G" fill="#fff">
                <use xlink:href="#E"/>
            </mask>
            <path fill="url(#F)" d="M29.228 46.37L10.38 105.987.825 136.201l3.306-1.253 8.891-28.126 18.849-59.618L46.015 2.462A164.01 164.01 0 0 0 43.638.779L29.228 46.37z" mask="url(#G)"/>
        </g>
        <g transform="rotate(106 -56.685 167.037)">
            <mask id="J" fill="#fff">
                <use xlink:href="#H"/>
            </mask>
            <path fill="url(#I)" d="M30.268 47.482L11.419 107.1.365 142.057l3.309-1.271 10.388-32.851L32.91 48.318l14.739-46.61c-.801-.546-1.596-1.09-2.399-1.624L30.268 47.482z" mask="url(#J)"/>
        </g>
        <g transform="rotate(106 -51.178 166.023)">
            <mask id="M" fill="#fff">
                <use xlink:href="#K"/>
            </mask>
            <path fill="url(#L)" d="M32.308 49.596l-18.85 59.623L.881 149.005c1.092-.442 2.197-.882 3.32-1.32l11.901-37.63L34.95 50.432 50.239 2.08A432.114 432.114 0 0 0 47.826.504L32.308 49.596z" mask="url(#M)"/>
        </g>
        <g transform="rotate(106 -46.171 165.385)">
            <mask id="P" fill="#fff">
                <use xlink:href="#N"/>
            </mask>
            <path fill="url(#O)" d="M33.345 51.716l-18.847 59.618L.332 156.13c1.104-.472 2.22-.948 3.36-1.414l13.449-42.548L35.99 52.551l15.813-50.01c-.805-.522-1.617-1.038-2.422-1.553L33.345 51.716z" mask="url(#P)"/>
        </g>
        <g transform="rotate(106 -41.04 163.871)">
            <mask id="S" fill="#fff">
                <use xlink:href="#Q"/>
            </mask>
            <path fill="url(#R)" d="M35.386 52.83l-18.854 59.616-15.85 50.13a168.695 168.695 0 0 1 3.409-1.581l15.084-47.713 18.854-59.617L54.348 2.048c-.107-.071-.217-.137-.325-.209-.686-.435-1.391-.878-2.1-1.318L35.386 52.83z" mask="url(#S)"/>
        </g>
        <g transform="rotate(106 -35.91 162.357)">
            <mask id="V" fill="#fff">
                <use xlink:href="#T"/>
            </mask>
            <path fill="url(#U)" d="M37.42 53.941l-18.85 59.624-17.717 56.05a99.007 99.007 0 0 1 3.502-1.892l16.859-53.322 18.849-59.624L56.861 1.651c-.803-.488-1.618-.98-2.446-1.474L37.42 53.941z" mask="url(#V)"/>
        </g>
        <g transform="rotate(106 -30.403 161.343)">
            <mask id="Y" fill="#fff">
                <use xlink:href="#W"/>
            </mask>
            <path fill="url(#X)" d="M39.458 56.062L20.61 115.679 1.762 175.296l-1.193 3.777a51.245 51.245 0 0 1 3.765-2.709l.072-.233 18.847-59.617 18.848-59.618L59.357 2.321c-.808-.489-1.622-.993-2.435-1.503L39.458 56.062z" mask="url(#Y)"/>
        </g>
        <g transform="rotate(106 -24.773 159.452)">
            <mask id="ab" fill="#fff">
                <use xlink:href="#Z"/>
            </mask>
            <path fill="url(#aa)" d="M42.498 57.175l-18.849 59.618-18.848 59.623-4.27 13.508a272.164 272.164 0 0 1 4.061-3.645l2.852-9.028 18.849-59.622L45.141 58.01 62.882 1.889c-.805-.52-1.608-1.055-2.404-1.592l-17.98 56.878z" mask="url(#ab)"/>
        </g>
        <g transform="rotate(106 -18.766 158.06)">
            <mask id="ae" fill="#fff">
                <use xlink:href="#ac"/>
            </mask>
            <path fill="url(#ad)" d="M45.538 59.288l-18.849 59.624-18.855 59.617L.223 202.61a975.404 975.404 0 0 1 4.14-3.897l6.12-19.348 18.849-59.617 18.849-59.623L66.492 2.202A85.53 85.53 0 0 1 64.146.435L45.538 59.288z" mask="url(#ae)"/>
        </g>
        <g transform="rotate(106 -11.882 156.793)">
            <mask id="ah" fill="#fff">
                <use xlink:href="#af"/>
            </mask>
            <path fill="url(#ag)" d="M68.42 2.783L49.571 62.401l-18.848 59.623-18.849 59.618L.877 216.42c1.398-1.309 2.784-2.606 4.141-3.889l9.499-30.054 18.848-59.617 18.85-59.624L71.063 3.62l.182-.573A52.187 52.187 0 0 1 68.992.983l-.572 1.8z" mask="url(#ah)"/>
        </g>
        <g transform="rotate(106 -5.498 155.902)">
            <mask id="ak" fill="#fff">
                <use xlink:href="#ai"/>
            </mask>
            <path fill="url(#aj)" d="M71.46 5.898L52.611 65.521l-18.849 59.617-18.849 59.623-14.272 45.15a499.04 499.04 0 0 0 4.074-3.699l12.841-40.615 18.849-59.623 18.849-59.617L74.103 6.733l1.143-3.61A38.514 38.514 0 0 1 73.151.552L71.46 5.898z" mask="url(#ak)"/>
        </g>
        <g transform="rotate(106 1.64 156.01)">
            <mask id="an" fill="#fff">
                <use xlink:href="#al"/>
            </mask>
            <path fill="url(#am)" d="M74.498 11.017L55.65 70.634l-18.848 59.618-18.849 59.624L.568 244.868a386.101 386.101 0 0 0 3.994-3.442l16.034-50.716 18.849-59.622L58.293 71.47l18.849-59.617 2.551-8.06a3.505 3.505 0 0 1-.161-.28A31.251 31.251 0 0 1 77.934.146l-3.436 10.871z" mask="url(#an)"/>
        </g>
        <g transform="rotate(106 11.037 159.12)">
            <mask id="aq" fill="#fff">
                <use xlink:href="#ao"/>
            </mask>
            <path fill="url(#ap)" d="M77.538 22.131L58.689 81.747l-18.848 59.625-18.849 59.616-18.847 59.618-1.42 4.493a206.615 206.615 0 0 0 3.891-3.121l.17-.53 18.85-59.624 18.849-59.617 18.848-59.624 18.848-59.616 4.965-15.692.001-.006a47.33 47.33 0 0 1-.89-6.39l-6.719 21.252z" mask="url(#aq)"/>
        </g>
        <g transform="rotate(106 23.326 167.106)">
            <mask id="at" fill="#fff">
                <use xlink:href="#ar"/>
            </mask>
            <path fill="url(#as)" d="M79.572 42.243l-18.85 59.623-18.848 59.618-18.847 59.617-18.85 59.623-4.05 12.805a189.685 189.685 0 0 0 3.777-2.751l2.916-9.218 18.849-59.623 18.849-59.618 18.849-59.617 18.848-59.624 10.071-31.854c.169-3.607.405-7.153.436-10.573l-13.15 41.592z" mask="url(#at)"/>
        </g>
        <g transform="rotate(106 34.232 172.215)">
            <mask id="aw" fill="#fff">
                <use xlink:href="#au"/>
            </mask>
            <path fill="url(#av)" d="M82.61 57.363L63.762 116.98l-18.848 59.617-18.849 59.624-18.849 59.617-6.398 20.245c1.22-.76 2.437-1.547 3.651-2.351l5.392-17.059 18.847-59.617 18.85-59.623 18.847-59.617 18.849-59.618 16.091-50.894c-.172-2.32-.406-4.637-.71-6.951L82.61 57.363z" mask="url(#aw)"/>
        </g>
        <g transform="rotate(106 43.13 175.7)">
            <mask id="az" fill="#fff">
                <use xlink:href="#ax"/>
            </mask>
            <path fill="url(#ay)" d="M103.5 8.853L84.65 68.476l-18.848 59.618-18.849 59.623-18.849 59.618-18.847 59.616-8.479 26.82a123.674 123.674 0 0 0 3.531-1.969l7.59-24.014 18.849-59.618 18.848-59.618 18.849-59.623 18.849-59.617 18.849-59.617 1.248-3.95v-.006a99.871 99.871 0 0 0-1.202-5.394L103.5 8.853z" mask="url(#az)"/>
        </g>
        <g transform="rotate(106 50.774 178.563)">
            <mask id="aC" fill="#fff">
                <use xlink:href="#aA"/>
            </mask>
            <path fill="url(#aB)" d="M104.538 17.973L85.691 77.59l-18.85 59.624-18.848 59.616-18.848 59.617-18.85 59.623L.028 348.559a98.418 98.418 0 0 0 3.4-1.569l9.51-30.083 18.85-59.624 18.848-59.616 18.848-59.617 18.85-59.624 18.848-59.618 4.291-13.561v-.006a106.447 106.447 0 0 0-1.509-4.428l-5.426 17.16z" mask="url(#aC)"/>
        </g>
        <g transform="rotate(106 58.165 180.049)">
            <mask id="aF" fill="#fff">
                <use xlink:href="#aD"/>
            </mask>
            <path fill="url(#aE)" d="M106.572 25.085L87.724 84.703l-18.849 59.622-18.849 59.618-18.848 59.624-18.849 59.617L.542 360.462a77.51 77.51 0 0 0 3.283-1.181l11.148-35.262 18.847-59.617 18.85-59.623 18.847-59.618 18.85-59.623 18.849-59.617 6.714-21.223a98.693 98.693 0 0 0-1.718-3.764l-7.64 24.151z" mask="url(#aF)"/>
        </g>
        <g transform="rotate(106 64.303 180.911)">
            <mask id="aI" fill="#fff">
                <use xlink:href="#aG"/>
            </mask>
            <path fill="url(#aH)" d="M107.613 30.199l-18.85 59.623-18.849 59.618-18.848 59.623-18.849 59.617-18.848 59.618L.346 369.49a67.177 67.177 0 0 0 3.158-.793l12.507-39.564 18.849-59.617 18.849-59.618 18.849-59.623 18.848-59.617 18.849-59.623 8.698-27.512a88.667 88.667 0 0 0-1.867-3.282l-9.473 29.958z" mask="url(#aI)"/>
        </g>
        <g transform="rotate(106 70.44 181.774)">
            <mask id="aL" fill="#fff">
                <use xlink:href="#aJ"/>
            </mask>
            <path fill="url(#aK)" d="M108.65 35.319L89.803 94.936l-18.849 59.617-18.848 59.624-18.849 59.617-18.849 59.623L.421 377.664a65.743 65.743 0 0 0 3.035-.417l13.595-42.994L35.9 274.63l18.848-59.618 18.85-59.624 18.848-59.617 18.848-59.617 10.368-32.792c-.415-.627-.836-1.255-1.264-1.878a68.301 68.301 0 0 0-.725-1.034L108.65 35.319z" mask="url(#aL)"/>
        </g>
        <g transform="rotate(106 76.2 182.136)">
            <mask id="aO" fill="#fff">
                <use xlink:href="#aM"/>
            </mask>
            <path fill="url(#aN)" d="M109.69 39.432L90.842 99.049l-18.849 59.623-18.849 59.617-18.847 59.618-18.849 59.623L.755 384H1.433c.751 0 1.5-.019 2.249-.056l14.409-45.579 18.848-59.616 18.849-59.624 18.849-59.617 18.849-59.623 18.848-59.618 11.789-37.296a93.383 93.383 0 0 0-2.071-2.644L109.69 39.432z" mask="url(#aO)"/>
        </g>
        <g transform="rotate(106 81.461 182.876)">
            <mask id="aR" fill="#fff">
                <use xlink:href="#aP"/>
            </mask>
            <path fill="url(#aQ)" d="M109.73 43.545l-18.855 59.623-18.848 59.618-18.848 59.617-18.85 59.623-18.847 59.617L.35 389.513c.935.128 1.867.238 2.806.31l14.968-47.344 18.849-59.617 18.848-59.624L74.67 163.62l18.854-59.616 18.85-59.623 13.034-41.228a127.23 127.23 0 0 0-2.142-2.41L109.73 43.545z" mask="url(#aR)"/>
        </g>
        <g transform="rotate(106 86.345 183.115)">
            <mask id="aU" fill="#fff">
                <use xlink:href="#aS"/>
            </mask>
            <path fill="url(#aT)" d="M109.764 46.665l-18.849 59.617-18.849 59.617-18.849 59.623-18.847 59.617-18.849 59.618L.197 393.235a40.98 40.98 0 0 0 2.699.662l15.268-48.305 18.849-59.617 18.848-59.617 18.849-59.624 18.847-59.617 18.849-59.618 14.123-44.665A144.446 144.446 0 0 0 124.32.615l-14.556 46.05z" mask="url(#aU)"/>
        </g>
        <g transform="rotate(106 91.23 183.354)">
            <mask id="aX" fill="#fff">
                <use xlink:href="#aV"/>
            </mask>
            <path fill="url(#aW)" d="M109.803 49.778l-18.848 59.617-18.85 59.623-18.848 59.617-18.848 59.618-18.85 59.623L.284 396.193c.864.367 1.727.698 2.593 1.003l15.327-48.484 18.848-59.623L55.9 229.471l18.849-59.617 18.848-59.623 18.849-59.617 15.071-47.661A110.59 110.59 0 0 0 125.25.925l-15.447 48.853z" mask="url(#aX)"/>
        </g>
        <g transform="rotate(106 95.736 183.094)">
            <mask id="ba" fill="#fff">
                <use xlink:href="#aY"/>
            </mask>
            <path fill="url(#aZ)" d="M109.843 51.891l-18.85 59.624-18.847 59.617-18.849 59.617-18.849 59.623L15.6 349.99.607 397.412c.825.467 1.654.911 2.486 1.324l15.149-47.911 18.849-59.617 18.849-59.624 18.848-59.617 18.849-59.617 18.849-59.623 15.886-50.256a130.359 130.359 0 0 0-2.313-1.873l-16.216 51.293z" mask="url(#ba)"/>
        </g>
        <g transform="rotate(106 99.743 183.21)">
            <mask id="bd" fill="#fff">
                <use xlink:href="#bb"/>
            </mask>
            <path fill="url(#bc)" d="M108.883 54.004l-18.849 59.624-18.849 59.618-18.855 59.621-18.849 59.618-18.848 59.617L.156 397.895a53.824 53.824 0 0 0 2.389 1.648l14.732-46.605 18.848-59.617 18.847-59.618 18.856-59.623 18.849-59.617 18.849-59.623L128.12 2.348a102.475 102.475 0 0 0-2.359-1.726l-16.878 53.382z" mask="url(#bd)"/>
        </g>
        <g transform="rotate(106 104.25 182.95)">
            <mask id="bg" fill="#fff">
                <use xlink:href="#be"/>
            </mask>
            <path fill="url(#bf)" d="M108.915 56.124l-18.848 59.617-18.849 59.623-18.849 59.618L33.521 294.6l-18.849 59.622L.929 397.688a69.669 69.669 0 0 0 2.288 1.951l14.098-44.582 18.849-59.623 18.848-59.617L73.861 176.2l18.849-59.623 18.849-59.618 17.2-54.415a92.134 92.134 0 0 0-2.404-1.58l-17.44 55.16z" mask="url(#bg)"/>
        </g>
        <g transform="rotate(106 107.88 182.565)">
            <mask id="bj" fill="#fff">
                <use xlink:href="#bh"/>
            </mask>
            <path fill="url(#bi)" d="M107.955 57.237l-18.848 59.617-18.849 59.624-18.849 59.617-18.848 59.623-18.849 59.617L.918 395.8a74.67 74.67 0 0 0 2.197 2.25l13.239-41.879 18.849-59.617 18.85-59.624L72.9 177.313l18.85-59.623 18.848-59.617 17.714-56.02c-.81-.49-1.626-.976-2.448-1.456l-17.909 56.64z" mask="url(#bj)"/>
        </g>
        <g transform="rotate(106 111.011 182.558)">
            <mask id="bm" fill="#fff">
                <use xlink:href="#bk"/>
            </mask>
            <path fill="url(#bl)" d="M105.995 58.351l-18.85 59.623-18.848 59.617-18.847 59.617-18.85 59.623-18.848 59.618L.114 393.256c.699.868 1.4 1.717 2.105 2.536l12.176-38.508 18.848-59.617 18.848-59.617 18.85-59.623 18.848-59.618 18.849-59.623 18.127-57.332c-.826-.455-1.656-.9-2.484-1.336l-18.286 57.833z" mask="url(#bm)"/>
        </g>
        <g transform="rotate(106 114.642 182.174)">
            <mask id="bp" fill="#fff">
                <use xlink:href="#bn"/>
            </mask>
            <path fill="url(#bo)" d="M105.033 59.47l-18.848 59.617-18.848 59.618-18.849 59.623-18.849 59.618-18.855 59.622L.509 390.067a131.07 131.07 0 0 0 2.014 2.816l10.905-34.479 18.856-59.623 18.847-59.618 18.85-59.622 18.847-59.618 18.848-59.617 18.459-58.383a99.13 99.13 0 0 0-2.527-1.21L105.033 59.47z" mask="url(#bp)"/>
        </g>
        <g transform="rotate(106 117.395 181.667)">
            <mask id="bs" fill="#fff">
                <use xlink:href="#bq"/>
            </mask>
            <path fill="url(#br)" d="M103.067 59.583L84.218 119.2 65.37 178.824l-18.848 59.617-18.849 59.617-18.848 59.623L.113 385.24c.63 1.045 1.266 2.086 1.923 3.109l9.431-29.832 18.849-59.624 18.849-59.617 18.848-59.617 18.85-59.623 18.847-59.617 18.702-59.164c-.849-.378-1.701-.745-2.555-1.104l-18.79 59.432z" mask="url(#bs)"/>
        </g>
        <g transform="rotate(106 121.025 181.283)">
            <mask id="bv" fill="#fff">
                <use xlink:href="#bt"/>
            </mask>
            <path fill="url(#bu)" d="M120.955 1.079l-18.848 59.617-18.849 59.624-18.849 59.617-18.848 59.617-18.849 59.623-18.847 59.617-6.962 22.024v.006a227.762 227.762 0 0 0 1.845 3.347l7.759-24.541 18.849-59.616 18.848-59.624 18.849-59.617 18.848-59.618 18.849-59.624 18.848-59.616.023-.071a95.628 95.628 0 0 0-2.596-.992l-.07.227z" mask="url(#bv)"/>
        </g>
        <g transform="rotate(106 123.779 180.776)">
            <mask id="by" fill="#fff">
                <use xlink:href="#bw"/>
            </mask>
            <path fill="url(#bx)" d="M118.995 1.193l-18.849 59.623-18.848 59.617-18.849 59.617L43.6 239.674l-18.848 59.617-18.849 59.618L.79 375.071v.006c.601 1.147 1.21 2.295 1.817 3.449l5.94-18.782 18.848-59.618 18.848-59.617 18.849-59.623 18.848-59.617 18.849-59.618 18.85-59.623.113-.358c-.874-.301-1.748-.594-2.631-.877l-.126.4z" mask="url(#by)"/>
        </g>
        <g transform="rotate(106 126.533 180.27)">
            <mask id="bB" fill="#fff">
                <use xlink:href="#bz"/>
            </mask>
            <path fill="url(#bA)" d="M117.035 1.306L98.186 60.929l-18.848 59.618-18.85 59.624-18.848 59.617-18.848 59.617-18.85 59.623-3.373 10.655 1.885 3.247 4.132-13.066 18.848-59.624 18.849-59.617 18.849-59.618 18.848-59.623 18.849-59.617 18.849-59.623.126-.393a99.563 99.563 0 0 0-2.665-.777l-.104.334z" mask="url(#bB)"/>
        </g>
        <g transform="rotate(106 128.91 179.262)">
            <mask id="bE" fill="#fff">
                <use xlink:href="#bC"/>
            </mask>
            <path fill="url(#bD)" d="M115.068.426L96.22 60.043l-18.85 59.623-18.849 59.617L39.674 238.9l-18.85 59.623-18.848 59.618-1.592 5.041c.593 1.121 1.21 2.257 1.831 3.401l2.405-7.607 18.847-59.617 18.849-59.623 18.849-59.617 18.849-59.617 18.848-59.624L117.711 1.26l.066-.202c-.902-.229-1.8-.452-2.698-.669l-.011.037z" mask="url(#bE)"/>
        </g>
        <g transform="rotate(106 131.286 178.255)">
            <mask id="bH" fill="#fff">
                <use xlink:href="#bF"/>
            </mask>
            <path fill="url(#bG)" d="M94.259 59.156L75.41 118.778l-18.848 59.618-18.849 59.624-18.849 59.617L.315 356.299c.587 1.17 1.179 2.346 1.793 3.539l.551-1.749 18.849-59.617 18.847-59.617 18.85-59.623 18.848-59.617 18.849-59.624L115.673.612c-.908-.193-1.817-.379-2.726-.56L94.259 59.156z" mask="url(#bH)"/>
        </g>
        <g transform="rotate(106 134.04 177.748)">
            <mask id="bK" fill="#fff">
                <use xlink:href="#bI"/>
            </mask>
            <path fill="url(#bJ)" d="M92.298 59.275l-18.849 59.617-18.847 59.617-18.85 59.624-18.848 59.618-16.49 52.153a197.952 197.952 0 0 0 1.705 3.801l17.428-55.119 18.849-59.618 18.848-59.617 18.849-59.623 18.849-59.617 18.553-58.7a107.24 107.24 0 0 0-2.761-.452L92.298 59.275z" mask="url(#bK)"/>
        </g>
        <g transform="rotate(106 136.04 176.24)">
            <mask id="bN" fill="#fff">
                <use xlink:href="#bL"/>
            </mask>
            <path fill="url(#bM)" d="M90.338 57.389l-18.849 59.618L52.64 176.63l-18.848 59.617-18.85 59.623L.797 340.619l-.002.012a109.79 109.79 0 0 0 1.559 4.255l15.232-48.18 18.85-59.623 18.848-59.618 18.849-59.623L92.98 58.224 111.245.457c-.936-.128-1.868-.238-2.8-.347L90.338 57.389z" mask="url(#bN)"/>
        </g>
        <g transform="rotate(106 137.916 175.61)">
            <mask id="bQ" fill="#fff">
                <use xlink:href="#bO"/>
            </mask>
            <path fill="url(#bP)" d="M87.371 56.501l-18.848 59.624-18.849 59.617-18.848 59.616-18.849 59.624L.716 330.596a83.95 83.95 0 0 0 1.268 5.192l12.636-39.97 18.849-59.623 18.849-59.617 18.847-59.617 18.85-59.624L107.908.757a85.373 85.373 0 0 0-2.842-.227L87.371 56.501z" mask="url(#bQ)"/>
        </g>
        <g transform="rotate(106 138.416 175.234)">
            <mask id="bT" fill="#fff">
                <use xlink:href="#bR"/>
            </mask>
            <path fill="url(#bS)" d="M82.41 54.621l-18.849 59.618-18.847 59.617-18.85 59.623-18.847 59.617-6.868 21.723-.002.014c-.04 2.713.087 5.389.358 8.049l9.154-28.95 18.849-59.617 18.849-59.624 18.849-59.618 18.847-59.616L102.484.314c-.96-.045-1.915-.082-2.871-.108L82.41 54.621z" mask="url(#bT)"/>
        </g>
        <g transform="rotate(106 136.416 176.74)">
            <mask id="bW" fill="#fff">
                <use xlink:href="#bU"/>
            </mask>
            <path fill="url(#bV)" d="M89.065.182L72.45 52.735l-18.848 59.617-18.849 59.623-18.849 59.617-12.485 39.493-.001.005-.002.013c-.448 5.843-1.301 11.689-2.652 17.564l17.784-56.239 18.847-59.617 18.85-59.624L75.093 53.57 91.982.159c-.249-.004-.499-.004-.748-.004-.723 0-1.447.01-2.169.027" mask="url(#bW)"/>
        </g>
        <g transform="rotate(106 134.916 177.871)">
            <mask id="bZ" fill="#fff">
                <use xlink:href="#bX"/>
            </mask>
            <path fill="url(#bY)" d="M79.42.461L63.49 50.849l-18.849 59.622-18.849 59.618-18.848 59.617-6.5 20.567c.176 2.714.291 5.425.332 8.138l8.811-27.869 18.848-59.617 18.849-59.618 18.849-59.623L82.382.295c-.991.037-1.979.095-2.962.166" mask="url(#bZ)"/>
        </g>
        <g transform="rotate(106 135.916 177.117)">
            <mask id="cc" fill="#fff">
                <use xlink:href="#ca"/>
            </mask>
            <path fill="url(#cb)" d="M74.67 1.075L59.528 48.967l-18.854 59.617-18.848 59.617-18.85 59.624-2.174 6.885-.001.007c.309 2.189.587 4.375.828 6.556l3.991-12.612 18.848-59.625 18.849-59.616 18.855-59.616L77.679.753a90.685 90.685 0 0 0-3.009.322" mask="url(#cc)"/>
        </g>
        <g transform="rotate(106 136.54 175.864)">
            <mask id="cf" fill="#fff">
                <use xlink:href="#cd"/>
            </mask>
            <path fill="url(#ce)" d="M69.798 1.057L55.563 46.08l-18.849 59.618-18.849 59.622L.55 220.087c.366 1.968.714 3.927 1.044 5.889l.066-.202 18.848-59.618 18.849-59.624 18.849-59.617L72.855.574a91.806 91.806 0 0 0-3.057.483" mask="url(#cf)"/>
        </g>
        <g transform="rotate(106 137.163 174.61)">
            <mask id="ci" fill="#fff">
                <use xlink:href="#cg"/>
            </mask>
            <path fill="url(#ch)" d="M64.796 1.464l-13.193 41.73-18.849 59.617-18.849 59.623-13.88 43.901c.385 1.871.773 3.73 1.142 5.585l15.381-48.65 18.849-59.617L54.245 44.03 67.919.785c-1.047.211-2.09.435-3.123.679" mask="url(#ci)"/>
        </g>
        <g transform="rotate(106 137.91 172.48)">
            <mask id="cl" fill="#fff">
                <use xlink:href="#cj"/>
            </mask>
            <path fill="url(#ck)" d="M60.635 1.372L48.641 39.307 29.793 98.932l-18.848 59.616L.382 191.955c.398 1.828.791 3.655 1.179 5.472l12.027-38.043 18.848-59.618 18.85-59.623L63.83.453c-1.071.296-2.138.597-3.195.919" mask="url(#cl)"/>
        </g>
        <g transform="rotate(106 138.656 170.35)">
            <mask id="co" fill="#fff">
                <use xlink:href="#cm"/>
            </mask>
            <path fill="url(#cn)" d="M56.288 1.877l-10.607 33.55-18.849 59.617-18.848 59.618-7.239 22.886-.001.006c.388 1.847.774 3.68 1.164 5.514l8.719-27.572 18.848-59.617 18.849-59.616L59.573.684a95.132 95.132 0 0 0-3.285 1.193" mask="url(#co)"/>
        </g>
        <g transform="rotate(106 138.525 168.096)">
            <mask id="cr" fill="#fff">
                <use xlink:href="#cp"/>
            </mask>
            <path fill="url(#cq)" d="M50.688 2.145l-8.973 28.394-18.849 59.618-18.85 59.623-3.777 11.951-.002.013c.347 1.928.708 3.844 1.081 5.756l5.342-16.885 18.849-59.622 18.849-59.618L54.087.593a82.47 82.47 0 0 0-3.399 1.552" mask="url(#cr)"/>
        </g>
        <g transform="rotate(106 138.018 165.343)">
            <mask id="cu" fill="#fff">
                <use xlink:href="#cs"/>
            </mask>
            <path fill="url(#ct)" d="M44.792 2.392l-7.038 22.261-18.849 59.624L.056 143.894l-.046.149v.006c.295 2.069.607 4.142.941 6.205l1.75-5.525 18.847-59.617 18.849-59.623L48.338.375a96.04 96.04 0 0 0-3.546 2.017" mask="url(#cu)"/>
        </g>
        <g transform="rotate(106 137.134 162.09)">
            <mask id="cx" fill="#fff">
                <use xlink:href="#cv"/>
            </mask>
            <path fill="url(#cw)" d="M38.474 2.97l-4.681 14.803L14.944 77.39.204 124.018l-.001.007c.22 2.289.465 4.576.735 6.861l16.65-52.661 18.848-59.617L42.228.292a88.657 88.657 0 0 0-3.754 2.678" mask="url(#cx)"/>
        </g>
        <g transform="rotate(106 135.374 158.712)">
            <mask id="cA" fill="#fff">
                <use xlink:href="#cy"/>
            </mask>
            <path fill="url(#cz)" d="M30.467 4.726l-.007.005-1.627 5.155L9.985 69.503l-9.898 31.3-.002.013c.082 2.643.21 5.307.388 7.971l12.155-38.448 18.848-59.617L34.568.93a86.741 86.741 0 0 0-4.101 3.796" mask="url(#cA)"/>
        </g>
        <g transform="rotate(106 131.606 153.712)">
            <mask id="cD" fill="#fff">
                <use xlink:href="#cB"/>
            </mask>
            <path fill="url(#cC)" d="M19.948 7.235L4.018 57.622.47 68.845C.212 72.37.06 75.935 0 79.525l6.66-21.068L24.902.756a86.325 86.325 0 0 0-4.954 6.479" mask="url(#cD)"/>
        </g>
        <g transform="rotate(106 122.194 144.343)">
            <mask id="cG" fill="#fff">
                <use xlink:href="#cE"/>
            </mask>
            <path fill="url(#cF)" d="M.012 28.25L8.767.566C4.753 9.208 1.901 18.503.012 28.25" mask="url(#cG)"/>
        </g>
    </g>
</svg>
