<?xml version="1.0" encoding="UTF-8"?>
<svg width="26px" height="17px" viewBox="0 0 26 17" version="1.1" xmlns="http://www.w3.org/2000/svg" xmlns:xlink="http://www.w3.org/1999/xlink">
    <!-- Generator: Sketch 60 (88103) - https://sketch.com -->
    <title>Rectangle 2</title>
    <desc>Created with Sketch.</desc>
    <g id="Page-1" stroke="none" stroke-width="1" fill="none" fill-rule="evenodd">
        <path d="M24.5,14 C25.3284271,14 26,14.6715729 26,15.5 C26,16.3284271 25.3284271,17 24.5,17 L1.5,17 C0.671572875,17 1.01453063e-16,16.3284271 0,15.5 C-1.01453063e-16,14.6715729 0.671572875,14 1.5,14 L24.5,14 Z M24.5,7 C25.3284271,7 26,7.67157288 26,8.5 C26,9.32842712 25.3284271,10 24.5,10 L1.5,10 C0.671572875,10 1.01453063e-16,9.32842712 0,8.5 C-1.01453063e-16,7.67157288 0.671572875,7 1.5,7 L24.5,7 Z M24.5,0 C25.3284271,-1.52179594e-16 26,0.671572875 26,1.5 C26,2.32842712 25.3284271,3 24.5,3 L1.5,3 C0.671572875,3 1.01453063e-16,2.32842712 0,1.5 C-1.01453063e-16,0.671572875 0.671572875,1.52179594e-16 1.5,0 L24.5,0 Z" id="Rectangle-2" fill="#6948F9"></path>
    </g>
</svg>