<?xml version="1.0" encoding="UTF-8"?>
<svg width="65px" height="65px" viewBox="0 0 65 65" version="1.1" xmlns="http://www.w3.org/2000/svg" xmlns:xlink="http://www.w3.org/1999/xlink">
    <!-- Generator: Sketch 63.1 (92452) - https://sketch.com -->
    <title>seat plan</title>
    <desc>Created with Sketch.</desc>
    <g id="Page-1" stroke="none" stroke-width="1" fill="none" fill-rule="evenodd">
        <g id="Show" transform="translate(-924.000000, -833.000000)" fill="#FFC41F" fill-rule="nonzero" stroke="#FFC41F" stroke-width="1.34999996">
            <g id="Group-9" transform="translate(924.000000, 833.000000)">
                <path d="M46.4339623,26.0881356 L46.4339623,18.7288136 C46.4339623,14.4983051 43.4842767,13 40.7106918,13 L24.245283,13 C21.4716981,13 18.5220126,14.4983051 18.5220126,18.7288136 L18.5220126,26.0881356 C16.4968553,26.6169492 15,28.4237288 15,30.6271186 L15,42.4372881 C15,45.9186441 17.3333333,47.2847458 19.6226415,47.4169492 L19.6226415,50.4135593 C19.6226415,51.2949153 20.327044,52 21.2075472,52 L22.836478,52 C23.7169811,52 24.4213836,51.2949153 24.4213836,50.4135593 L24.4213836,47.4169492 L40.5786164,47.4169492 L40.5786164,50.4135593 C40.5786164,51.2949153 41.2830189,52 42.163522,52 L43.7924528,52 C44.672956,52 45.3773585,51.2949153 45.3773585,50.4135593 L45.3773585,47.4169492 C48.7672956,47.240678 50,44.7728814 50,42.4372881 L50,30.5830508 C49.9119497,28.4237288 48.4150943,26.5728814 46.4339623,26.0881356 Z M20.3846154,19.0224188 C20.3846154,15.3898487 22.928415,14.8139535 24.4374487,14.8139535 L40.5625513,14.8139535 C42.071585,14.8139535 44.6153846,15.3455491 44.6153846,18.9781192 L44.6153846,26.2432594 C42.2871612,26.4647576 40.4332056,28.4582412 40.4332056,30.9390207 L40.4332056,32.0465116 L24.5667944,32.0465116 L24.5667944,30.9390207 C24.5667944,28.4582412 22.7128388,26.4647576 20.3846154,26.2432594 L20.3846154,19.0224188 Z M41.025641,33.8604651 L41.025641,39.3023256 L24.8717949,39.3023256 L24.8717949,33.8604651 L41.025641,33.8604651 Z M23.0769231,50.1860465 L21.2820513,50.1860465 L21.2820513,47.4651163 L23.0769231,47.4651163 L23.0769231,50.1860465 Z M43.7179487,50.1860465 L41.9230769,50.1860465 L41.9230769,47.4651163 L43.7179487,47.4651163 L43.7179487,50.1860465 Z M48.2051282,42.2662735 L48.1616839,42.2662735 C48.1616839,43.7851341 47.5969075,45.6511628 44.7730255,45.6511628 L43.6000284,45.6511628 L41.9925879,45.6511628 L22.9639678,45.6511628 L21.3565273,45.6511628 L20.1835302,45.6511628 C18.6629783,45.6511628 16.7948718,45.0870146 16.7948718,42.2662735 L16.7948718,30.5927451 C16.7948718,28.9003004 18.1850906,27.5116279 19.8794198,27.5116279 C21.573749,27.5116279 22.9639678,28.9003004 22.9639678,30.5927451 L22.9639678,39.4021364 C22.9639678,39.8360966 23.3115225,40.1832647 23.7459659,40.1832647 L41.2540341,40.1832647 C41.6884775,40.1832647 42.0360322,39.8360966 42.0360322,39.4021364 L42.0360322,30.5927451 C42.0360322,28.9003004 43.426251,27.5116279 45.1205802,27.5116279 C46.8149094,27.5116279 48.2051282,28.9003004 48.2051282,30.5927451 L48.2051282,42.2662735 L48.2051282,42.2662735 Z" id="Shape"></path>
            </g>
        </g>
    </g>
</svg>
