<?xml version="1.0" encoding="UTF-8"?>
<svg width="65px" height="65px" viewBox="0 0 65 65" version="1.1" xmlns="http://www.w3.org/2000/svg" xmlns:xlink="http://www.w3.org/1999/xlink">
    <!-- Generator: Sketch 63.1 (92452) - https://sketch.com -->
    <title>crew</title>
    <desc>Created with Sketch.</desc>
    <g id="Page-1" stroke="none" stroke-width="1" fill="none" fill-rule="evenodd">
        <g id="Show" transform="translate(-835.000000, -833.000000)" fill="#000000" fill-rule="nonzero">
            <g id="Group-8" transform="translate(835.000000, 833.000000)">
                <g id="team" transform="translate(9.000000, 13.000000)">
                    <path d="M39.2617188,21.3477324 L34.7589297,21.3477324 C34.1461055,21.3477324 33.5527773,21.4297643 32.9881094,21.5806256 C31.8742266,19.4354728 29.6001016,17.9615385 26.9796289,17.9615385 L19.0203711,17.9615385 C16.3998984,17.9615385 14.1257734,19.4354728 13.0118906,21.5806256 C12.4472227,21.4297643 11.8538945,21.3477324 11.2410703,21.3477324 L6.73828125,21.3477324 C3.02279297,21.3477324 0,24.3090677 0,27.9490149 L0,35.0007689 C0,37.1847373 1.81367578,38.9615385 4.04296875,38.9615385 L41.9570312,38.9615385 C44.1863242,38.9615385 46,37.1847373 46,35.0007689 L46,27.9490149 C46,24.3090677 42.977207,21.3477324 39.2617188,21.3477324 Z M12.2820898,24.562997 L12.2820898,36.3211135 L4.04296875,36.3211135 C3.29987109,36.3211135 2.6953125,35.7288464 2.6953125,35.000857 L2.6953125,27.9491029 C2.6953125,25.7651346 4.50898828,23.9883334 6.73828125,23.9883334 L11.2410703,23.9883334 C11.6069141,23.9883334 11.961168,24.0370068 12.2984414,24.1266963 C12.2887383,24.2711323 12.2820898,24.4163605 12.2820898,24.562997 Z M31.0225977,36.3211135 L14.9774023,36.3211135 L14.9774023,24.562909 C14.9774023,22.3789407 16.7910781,20.6021395 19.0203711,20.6021395 L26.9796289,20.6021395 C29.2089219,20.6021395 31.0225977,22.3789407 31.0225977,24.562909 L31.0225977,36.3211135 Z M43.3046875,35.000857 C43.3046875,35.7288464 42.7001289,36.3211135 41.9570313,36.3211135 L33.7179102,36.3211135 L33.7179102,24.562909 C33.7179102,24.4161845 33.7112617,24.2709563 33.7015586,24.1266082 C34.038832,24.0370068 34.3930859,23.9882454 34.7589297,23.9882454 L39.2617188,23.9882454 C41.4910117,23.9882454 43.3046875,25.7650466 43.3046875,27.9490149 L43.3046875,35.000857 Z" id="Shape"></path>
                    <path d="M9,8.96153846 C5.69156438,8.96153846 3,11.6531028 3,14.9615385 C3,18.2699741 5.69156438,20.9615385 9,20.9615385 C12.3083456,20.9615385 15,18.2699741 15,14.9615385 C15,11.6531028 12.3084356,8.96153846 9,8.96153846 Z M8.99990997,18.2607012 C7.18071602,18.2607012 5.70074723,16.7807324 5.70074723,14.9615385 C5.70074723,13.1423445 7.18071602,11.6623757 8.99990997,11.6623757 C10.8191039,11.6623757 12.2990727,13.1423445 12.2990727,14.9615385 C12.2990727,16.7807324 10.8191039,18.2607012 8.99990997,18.2607012 Z" id="Shape"></path>
                    <path d="M23,0.961538462 C18.5887599,0.961538462 15,4.55029832 15,8.96153846 C15,13.3727786 18.5887599,16.9615385 23,16.9615385 C27.4112401,16.9615385 31,13.3727786 31,8.96153846 C31,4.55038817 27.4112401,0.961538462 23,0.961538462 Z M23,14.2660601 C20.0750466,14.2660601 17.6954783,11.8864919 17.6954783,8.96153846 C17.6954783,6.03667492 20.0750466,3.6570168 23,3.6570168 C25.9249534,3.6570168 28.3045217,6.03658507 28.3045217,8.96153846 C28.3045217,11.8864919 25.9249534,14.2660601 23,14.2660601 Z" id="Shape"></path>
                    <path d="M37,8.96153846 C33.6916544,8.96153846 31,11.6531028 31,14.9615385 C31,18.2699741 33.6916544,20.9615385 37,20.9615385 C40.3084356,20.9615385 43,18.2699741 43,14.9615385 C43,11.6531028 40.3084356,8.96153846 37,8.96153846 Z M37,18.2607012 C35.1808961,18.2607012 33.7008373,16.7807324 33.7008373,14.9615385 C33.7009273,13.1423445 35.1808961,11.6623757 37,11.6623757 C38.819194,11.6623757 40.2991627,13.1423445 40.2991627,14.9615385 C40.2991627,16.7807324 38.819194,18.2607012 37,18.2607012 Z" id="Shape"></path>
                </g>
            </g>
        </g>
    </g>
</svg>