<?xml version="1.0" encoding="UTF-8"?>
<svg width="65px" height="65px" viewBox="0 0 65 65" version="1.1" xmlns="http://www.w3.org/2000/svg" xmlns:xlink="http://www.w3.org/1999/xlink">
    <title>web users</title>
    <g id="Page-1" stroke="none" stroke-width="1" fill="none" fill-rule="evenodd">
        <g id="Group-25" fill="#FFC41F" fill-rule="nonzero" stroke="#FFC41F" stroke-width="0.5">
            <path d="M45.3333326,19 C47.3559992,19 49,20.6253182 49,22.625 L49,44.375 C49,46.3746818 47.3559992,48 45.3333326,48 L20.6666666,48 C18.644,48 17,46.3746818 17,44.375 L17,22.625 C17,20.6253182 18.644,19 20.6666666,19 L45.3333326,19 Z M46.999,25.59 L18.999,25.59 L18.9999999,44.375 C18.9999999,45.2832273 19.7479999,46.0227273 20.6666666,46.0227273 L45.3333326,46.0227273 C46.2519992,46.0227273 46.9999999,45.2832273 46.9999999,44.375 L46.999,25.59 Z M34.3749997,36.1363636 C36.3976662,36.1363636 38.0416661,37.7616818 38.0416661,39.7613636 L38.0416661,41.0795455 C38.0416661,41.6252727 37.5936661,42.0681818 37.0416661,42.0681818 C36.4896662,42.0681818 36.0416662,41.6252727 36.0416662,41.0795455 L36.0416662,39.7613636 C36.0416662,38.8531364 35.2936662,38.1136364 34.3749997,38.1136364 L31.0416663,38.1136364 C30.1229997,38.1136364 29.3749997,38.8531364 29.3749997,39.7613636 L29.3749997,41.0795455 C29.3749997,41.6252727 28.9269997,42.0681818 28.3749997,42.0681818 C27.8229997,42.0681818 27.3749997,41.6252727 27.3749997,41.0795455 L27.3749997,39.7613636 C27.3749997,37.7616818 29.0189997,36.1363636 31.0416663,36.1363636 L34.3749997,36.1363636 Z M32.7083329,29.5454545 C34.1789995,29.5454545 35.3749995,30.7278636 35.3749995,32.1818182 C35.3749995,33.6357727 34.1789995,34.8181818 32.7083329,34.8181818 C31.2376663,34.8181818 30.0416663,33.6357727 30.0416663,32.1818182 C30.0416663,30.7278636 31.2376663,29.5454545 32.7083329,29.5454545 Z M32.7083329,31.5227273 C32.3403329,31.5227273 32.0416663,31.818 32.0416663,32.1818182 C32.0416663,32.5456364 32.3403329,32.8409091 32.7083329,32.8409091 C33.0763329,32.8409091 33.3749996,32.5456364 33.3749996,32.1818182 C33.3749996,31.818 33.0763329,31.5227273 32.7083329,31.5227273 Z M45.3333326,20.9772727 L20.6666666,20.9772727 C19.7479999,20.9772727 18.9999999,21.7167727 18.9999999,22.625 L18.999,23.613 L46.999,23.613 L46.9999999,22.625 C46.9999999,21.7167727 46.2519992,20.9772727 45.3333326,20.9772727 Z" id="Combined-Shape"></path>
        </g>
    </g>
</svg>
