<?xml version="1.0" encoding="UTF-8"?>
<svg width="27px" height="27px" viewBox="0 0 27 27" version="1.1" xmlns="http://www.w3.org/2000/svg" xmlns:xlink="http://www.w3.org/1999/xlink">
    <title>ticket</title>
    <g id="Sprint-9" stroke="none" stroke-width="1" fill="none" fill-rule="evenodd">
        <g id="ticket" fill="#000000" fill-rule="nonzero">
            <path d="M26.4223812,9.61629687 L17.3707161,0.56457882 C16.617606,-0.188535681 15.4383962,-0.187850121 14.6859189,0.56457882 L0.565565979,14.6850143 C0.195049099,15.0555333 -0.0110397098,15.5643774 0.000456544095,16.0804989 C0.0112672416,16.5807471 0.216090407,17.0422347 0.577695054,17.3821672 L2.50558519,19.3100686 C2.8395039,19.6446221 3.3677515,19.6834354 3.74718061,19.4029357 C4.85424877,18.5852731 6.3950632,18.6918513 7.33163875,19.6519524 C8.29110133,20.6349933 8.40785686,22.1792973 7.60290815,23.2443945 C7.31571274,23.6244586 7.35262732,24.1574555 7.68939373,24.4942239 L9.62936021,26.4342017 C9.99033203,26.7948592 10.4819815,27 10.9844416,27 C10.9977836,27 11.0114947,26.9996836 11.0248367,26.9993672 C11.5250819,26.9885564 11.9865669,26.7840485 12.3264974,26.4221253 L26.4344576,12.3131334 C26.8049745,11.9429308 27.0107469,11.4344031 26.999567,10.9179652 C26.9887563,10.417717 26.7843023,9.95628211 26.4223812,9.61629687 Z M16.0477504,1.90379476 C16.0433206,1.90632606 16.0359905,1.90759171 16.0299259,1.90885736 L15.3608229,1.23975037 L16.0477504,1.90379476 Z M10.9720488,25.0781632 L9.56924218,23.6753483 C10.4250275,21.9405113 10.1067184,19.7635932 8.69721441,18.3191174 C7.29250929,16.8809698 5.10479327,16.5553286 3.32703999,17.4331096 L1.92170206,16.0280272 L16.0286603,1.92130291 L25.0786907,10.9713862 L10.9720488,25.0781632 Z" id="Shape"></path>
            <polygon id="Rectangle" transform="translate(13.212461, 5.724889) rotate(-44.631296) translate(-13.212461, -5.724889) " points="12.2586473 3.98230582 14.1662845 3.98230025 14.1662743 7.46747171 12.2586372 7.46747729"></polygon>
            <polygon id="Rectangle" transform="translate(21.308713, 13.817891) rotate(-45.372729) translate(-21.308713, -13.817891) " points="20.3546209 12.0749207 22.2628159 12.0749151 22.2628057 15.5608617 20.3546107 15.5608673"></polygon>
            <polygon id="Rectangle" transform="translate(17.267679, 9.763393) rotate(-45.000000) translate(-17.267679, -9.763393) " points="16.3137915 8.00951706 18.2215768 8.00951148 18.2215666 11.5172694 16.3137812 11.517275"></polygon>
        </g>
    </g>
</svg>