<?xml version="1.0" encoding="UTF-8"?>
<svg width="65px" height="65px" viewBox="0 0 65 65" version="1.1" xmlns="http://www.w3.org/2000/svg" xmlns:xlink="http://www.w3.org/1999/xlink">
    <title>dashboard</title>
    <g id="Page-1" stroke="none" stroke-width="1" fill="none" fill-rule="evenodd">
        <g id="Group-26" fill="#FFC41F" fill-rule="nonzero" stroke="#FFC41F" stroke-width="0.2">
            <g id="dashboard-(6)" transform="translate(18.000000, 18.000000)">
                <path d="M26.1692746,13.3249998 C27.5642995,13.3249998 28.6999995,14.4606998 28.6999995,15.8557247 L28.6999995,26.1692746 C28.6999995,27.5642995 27.5642995,28.6999995 26.1692746,28.6999995 L17.9057247,28.6999995 C16.5106997,28.6999995 15.3749997,27.5642995 15.3749997,26.1692746 L15.3749997,15.8557247 C15.3749997,14.4606998 16.5106997,13.3249998 17.9057247,13.3249998 L26.1692746,13.3249998 Z M10.7942748,17.4249997 C12.1892998,17.4249997 13.3249998,18.5606997 13.3249998,19.9557247 L13.3249998,26.1692746 C13.3249998,27.5642995 12.1892998,28.6999995 10.7942748,28.6999995 L2.53072496,28.6999995 C1.13569998,28.6999995 1.98951966e-13,27.5642995 1.98951966e-13,26.1692746 L1.98951966e-13,19.9557247 C1.98951966e-13,18.5606997 1.13569998,17.4249997 2.53072496,17.4249997 L10.7942748,17.4249997 Z M26.1692746,15.3749997 L17.9057247,15.3749997 C17.6402497,15.3749997 17.4249997,15.5902497 17.4249997,15.8557247 L17.4249997,26.1692746 C17.4249997,26.4347495 17.6402497,26.6499995 17.9057247,26.6499995 L26.1692746,26.6499995 C26.4347495,26.6499995 26.6499995,26.4347495 26.6499995,26.1692746 L26.6499995,15.8557247 C26.6499995,15.5902497 26.4347495,15.3749997 26.1692746,15.3749997 Z M10.7942748,19.4749997 L2.53072496,19.4749997 C2.26524996,19.4749997 2.04999997,19.6902497 2.04999997,19.9557247 L2.04999997,26.1692746 C2.04999997,26.4347495 2.26524996,26.6499995 2.53072496,26.6499995 L10.7942748,26.6499995 C11.0597498,26.6499995 11.2749998,26.4347495 11.2749998,26.1692746 L11.2749998,19.9557247 C11.2749998,19.6902497 11.0597498,19.4749997 10.7942748,19.4749997 Z M10.7942748,1.94511074e-13 C12.1892998,1.94511074e-13 13.3249998,1.13569998 13.3249998,2.53072496 L13.3249998,12.8442748 C13.3249998,14.2392998 12.1892998,15.3749997 10.7942748,15.3749997 L2.53072496,15.3749997 C1.13569998,15.3749997 1.98951966e-13,14.2392998 1.98951966e-13,12.8442748 L1.98951966e-13,2.53072496 C1.98951966e-13,1.13569998 1.13569998,1.94511074e-13 2.53072496,1.94511074e-13 L10.7942748,1.94511074e-13 Z M10.7942748,2.04999997 L2.53072496,2.04999997 C2.26524996,2.04999997 2.04999997,2.26524996 2.04999997,2.53072496 L2.04999997,12.8442748 C2.04999997,13.1097498 2.26524996,13.3249998 2.53072496,13.3249998 L10.7942748,13.3249998 C11.0597498,13.3249998 11.2749998,13.1097498 11.2749998,12.8442748 L11.2749998,2.53072496 C11.2749998,2.26524996 11.0597498,2.04999997 10.7942748,2.04999997 Z M26.1692746,1.27897692e-13 C27.5642995,1.27897692e-13 28.6999995,1.13569998 28.6999995,2.53072496 L28.6999995,8.74427485 C28.6999995,10.1392998 27.5642995,11.2749998 26.1692746,11.2749998 L17.9057247,11.2749998 C16.5106997,11.2749998 15.3749997,10.1392998 15.3749997,8.74427485 L15.3749997,2.53072496 C15.3749997,1.13569998 16.5106997,1.27897692e-13 17.9057247,1.27897692e-13 L26.1692746,1.27897692e-13 Z M26.1692746,2.04999997 L17.9057247,2.04999997 C17.6402497,2.04999997 17.4249997,2.26524996 17.4249997,2.53072496 L17.4249997,8.74427485 C17.4249997,9.00974985 17.6402497,9.22499984 17.9057247,9.22499984 L26.1692746,9.22499984 C26.4347495,9.22499984 26.6499995,9.00974985 26.6499995,8.74427485 L26.6499995,2.53072496 C26.6499995,2.26524996 26.4347495,2.04999997 26.1692746,2.04999997 Z" id="Combined-Shape"></path>
            </g>
        </g>
    </g>
</svg>
