<?xml version="1.0" encoding="UTF-8"?>
<svg width="65px" height="65px" viewBox="0 0 65 65" version="1.1" xmlns="http://www.w3.org/2000/svg" xmlns:xlink="http://www.w3.org/1999/xlink">
    <!-- Generator: Sketch 63.1 (92452) - https://sketch.com -->
    <title>vendors copy</title>
    <desc>Created with Sketch.</desc>
    <g id="Page-1" stroke="none" stroke-width="1" fill="none" fill-rule="evenodd">
        <g id="Show" transform="translate(-1020.000000, -833.000000)" fill="#FFC41F" fill-rule="nonzero">
            <g id="Group-10" transform="translate(1020.000000, 833.000000)">
                <g id="contacts" transform="translate(12.115385, 11.000000)">
                    <path d="M26.8934314,20.0740148 C26.3342734,19.5151911 25.4268167,19.5149226 24.86739,20.0740148 L22.1869232,22.7529684 C20.5487557,22.0651097 17.8146563,19.3386404 17.1219987,17.6910723 L19.802555,15.0121187 C20.3619817,14.4530265 20.3619817,13.5464703 19.802555,12.9873781 L14.2310306,7.41918493 C13.6720516,6.86045067 12.7644159,6.86009274 12.2050787,7.41918493 L9.16619567,10.4563405 C7.65919976,11.9623459 7.47484324,14.4691335 8.64706061,17.5148795 C12.0243037,26.2905151 24.6807951,35.4463657 29.4260728,30.7041042 L32.4650454,27.6669486 C33.0244721,27.1078564 33.0244721,26.2013002 32.4650454,25.642208 L26.8934314,20.0740148 Z M27.3999418,28.6793636 C26.7705868,29.3081634 25.2346705,29.258858 23.3916425,28.5503286 C18.6295318,26.7199459 13.1581097,21.2602066 11.3210807,16.4869838 C10.6121274,14.6449683 10.562703,13.1100598 11.1919685,12.4810811 L13.2179204,10.4563405 L16.7634034,13.9997036 L14.737541,16.0244442 C14.1974543,16.5641185 13.7733179,17.6028417 14.8201836,19.48593 C16.3560999,22.2489085 21.6042169,27.384718 23.8544588,25.1360005 L25.8804107,23.1112599 L29.4258937,26.654623 L27.3999418,28.6793636 Z" id="Shape"></path>
                    <path d="M31.9401709,0 L8.82905983,0 C4.44851122,0 0.884615385,3.54681702 0.884615385,7.90637327 L0.884615385,30.9067319 C0.884615385,35.2662881 4.44851122,38.8131051 8.82905983,38.8131051 L15.2334557,38.8131051 L19.1460043,45.3027102 C19.7048237,46.2296426 21.0609765,46.235213 21.6231362,45.3027102 L25.5357751,38.8131051 L31.9401709,38.8131051 C36.3207196,38.8131051 39.8846154,35.2662881 39.8846154,30.9067319 L39.8846154,7.90637327 C39.8846154,3.54681702 36.3208098,0 31.9401709,0 Z M36.9957265,30.9067319 C36.9957265,33.6810603 34.7277682,35.9380603 31.9401709,35.9380603 L24.7179487,35.9380603 C24.2105876,35.9380603 23.7404209,36.2030137 23.4793376,36.6360673 L20.3846154,41.7691903 L17.2898932,36.6360673 C17.0288098,36.2031035 16.5586432,35.9380603 16.0512821,35.9380603 L8.82905983,35.9380603 C6.04146261,35.9380603 3.77350427,33.6810603 3.77350427,30.9067319 L3.77350427,7.90637327 C3.77350427,5.13204486 6.04146261,2.87504482 8.82905983,2.87504482 L31.9401709,2.87504482 C34.7277682,2.87504482 36.9957265,5.13204486 36.9957265,7.90637327 L36.9957265,30.9067319 Z" id="Shape"></path>
                </g>
            </g>
        </g>
    </g>
</svg>
