<?xml version="1.0" encoding="UTF-8"?>
<svg width="65px" height="65px" viewBox="0 0 65 65" version="1.1" xmlns="http://www.w3.org/2000/svg" xmlns:xlink="http://www.w3.org/1999/xlink">
    <!-- Generator: Sketch 63.1 (92452) - https://sketch.com -->
    <title>sliders</title>
    <desc>Created with Sketch.</desc>
    <g id="Page-1" stroke="none" stroke-width="1" fill="none" fill-rule="evenodd">
        <g id="Show" transform="translate(-469.000000, -833.000000)" fill="#FFC41F" fill-rule="nonzero" stroke="#FFC41F">
            <g id="Group-3" transform="translate(469.000000, 833.000000)">
                <g id="sliders" transform="translate(7.000000, 11.000000)">
                    <path d="M34.0012396,0.7 C37.5160628,0.7 40.3763724,3.5266 40.3763724,7 L40.3763724,36.4 C40.3763724,39.8734 37.5160628,42.7 34.0012396,42.7 L17.0008854,42.7 C13.4860622,42.7 10.6257526,39.8734 10.6257526,36.4 L10.6257526,7 C10.6257526,3.5266 13.4860622,0.7 17.0008854,0.7 L34.0012396,0.7 Z M34.0012396,4.9 L17.0008854,4.9 C15.827861,4.9 14.8758411,5.8429 14.8758411,7 L14.8758411,36.4 C14.8758411,37.5571 15.827861,38.5 17.0008854,38.5 L34.0012396,38.5 C35.174264,38.5 36.1262839,37.5571 36.1262839,36.4 L36.1262839,7 C36.1262839,5.8429 35.174264,4.9 34.0012396,4.9 Z M6.58816848,15.82 C7.52743806,16.5151 7.71869207,17.8318 7.01317738,18.76 L4.78188087,21.7 L7.01317738,24.64 C7.71869207,25.5682 7.52743806,26.8849 6.58816848,27.58 C6.20566052,27.8635 5.75940123,28 5.31526698,28 C4.66712848,28 4.03174025,27.7102 3.61310652,27.16 L0.425540115,22.96 C-0.141846705,22.2145 -0.141846705,21.1855 0.425540115,20.44 L3.61310652,16.24 C4.31649617,15.3139 5.64889894,15.1228 6.58816848,15.82 Z M47.3868935,16.24 L50.5744599,20.44 C51.1418467,21.1855 51.1418467,22.2145 50.5744599,22.96 L47.3868935,27.16 C46.9725098,27.7102 46.3349965,28 45.686858,28 C45.2427238,28 44.7964645,27.8635 44.4139566,27.58 C43.474687,26.8849 43.283433,25.5682 43.9889477,24.64 L46.2202442,21.7 L43.9889477,18.76 C43.283433,17.8318 43.474687,16.5151 44.4139566,15.82 C45.351101,15.1207 46.6813788,15.3118 47.3868935,16.24 Z"></path>
                </g>
            </g>
        </g>
    </g>
</svg>
