<?xml version="1.0" encoding="UTF-8"?>
<svg width="65px" height="65px" viewBox="0 0 65 65" version="1.1" xmlns="http://www.w3.org/2000/svg" xmlns:xlink="http://www.w3.org/1999/xlink">
    <!-- Generator: Sketch 63.1 (92452) - https://sketch.com -->
    <title>plays</title>
    <desc>Created with Sketch.</desc>
    <g id="Page-1" stroke="none" stroke-width="1" fill="none" fill-rule="evenodd">
        <g id="Show" transform="translate(-643.000000, -833.000000)" fill="#000000" fill-rule="nonzero" stroke="#000000">
            <g id="Group-6" transform="translate(643.000000, 833.000000)">
                <g id="plays" transform="translate(9.000000, 12.000000)">
                    <path d="M45.4096993,3.40341031 C45.2570353,3.29677025 41.561163,0.794117647 32.5083642,0.794117647 C23.4552145,0.794117647 19.7589913,3.29677025 19.6059764,3.40341031 C19.2367752,3.66091573 19.0160266,4.08676252 19.0160266,4.54185511 L19.0160266,7.28418031 C16.950676,7.70004084 14.1950033,8.53283168 10.7770848,10.1623914 C2.58131006,14.0702672 0.281172654,17.9314211 0.187117602,18.0936994 C-0.0395971441,18.4863774 -0.0617071227,18.9671491 0.128508737,19.3794431 L5.64932967,31.3373934 C8.36288814,37.2150783 14.138851,40.7941176 20.2861208,40.7941176 C21.6478134,40.7941176 23.0281063,40.6186431 24.3968179,40.2534277 C24.4010293,40.2523577 24.4052408,40.2512878 24.4094522,40.2498612 L24.4098031,40.2498612 C24.5649238,40.2067058 24.7116216,40.136088 24.8421756,40.0412176 C27.2486513,38.2928917 29.0585092,35.9774833 30.1991021,33.3849534 C30.8669632,33.6046533 31.5555304,33.7826245 32.2619962,33.914587 C32.3027066,33.9224335 32.343417,33.92814 32.3848292,33.9317065 L32.3851803,33.9317065 C32.4258906,33.9356297 32.466952,33.937413 32.5080133,33.937413 C32.590487,33.937413 32.6726096,33.9299232 32.7536795,33.914587 C40.4293439,32.4794047 46,25.6815482 46,17.7505968 L46,4.54185511 C46,4.08676252 45.7792514,3.66091573 45.4096993,3.40341031 Z M8.10844817,30.1647096 L2.93401648,18.9564495 C3.83596228,17.8697197 6.36562203,15.3153521 11.930663,12.6618341 C17.4967568,10.0083161 21.0459312,9.66414344 22.4444736,9.65415701 L27.6189053,20.8624172 C30.3412376,26.7593615 28.5910415,33.7744214 23.4646902,37.6455616 C17.2584606,39.1773976 10.8307804,36.061654 8.10844817,30.1647096 Z M43.283283,17.7505968 C43.283283,24.2645554 38.7668858,29.8597691 32.5080133,31.1512191 C32.0268585,31.0520689 31.5558814,30.9268827 31.0964857,30.7781574 C31.7492557,28.2077401 31.7917209,25.4768279 31.1617626,22.8243798 C32.8459798,22.3496713 34.7281336,22.7826512 36.0494668,24.1254596 C36.3147863,24.3950913 36.6625794,24.5299072 37.0100216,24.5299072 C37.3574638,24.5299072 37.7052568,24.3950913 37.9705763,24.1254596 C38.5008643,23.586553 38.5008643,22.7127467 37.9705763,22.1734833 C35.8985575,20.0681451 32.9330158,19.4108288 30.3029839,20.201891 C30.2306878,20.0306963 30.156637,19.8598582 30.0780238,19.6897335 L27.875451,14.9183943 C28.972526,14.9091212 30.0029201,14.4715048 30.7795763,13.6818692 C31.3098643,13.1429625 31.3098643,12.2687996 30.7795763,11.729893 C30.2492883,11.1909862 29.3891057,11.1909862 28.8588177,11.729893 C28.5868301,12.006301 28.2253498,12.158593 27.8407068,12.158593 C27.4564147,12.158593 27.0949345,12.006301 26.8229469,11.729893 C26.655192,11.5597681 26.4547986,11.4434985 26.2424729,11.380727 L24.5575538,7.73178315 C24.367338,7.31948924 23.989714,7.02952826 23.5478657,6.95570049 C23.4818869,6.94464414 22.870529,6.85084379 21.7323927,6.91753828 L21.7323927,5.36751295 C22.9923092,4.77653457 26.3442488,3.5546323 32.5083642,3.5546323 C38.655634,3.5546323 42.0128379,4.77546458 43.283283,5.37000956 L43.283283,17.7505968 Z" id="Shape" stroke-width="0.2"></path>
                    <path d="M36.4998159,14.7941176 C37.6645499,14.7941176 38.759341,14.3053952 39.5828271,13.4172784 C40.1390576,12.8169954 40.1390576,11.8443149 39.5828271,11.244032 C39.0262286,10.6441462 38.1243327,10.6441462 37.5677341,11.244032 C37.2824406,11.5517166 36.9032762,11.721241 36.500184,11.721241 C36.0967237,11.721241 35.7175594,11.5517166 35.4322658,11.244032 C34.8760353,10.6441462 33.9737713,10.6441462 33.4171727,11.244032 C32.8609424,11.8443149 32.8609424,12.8169954 33.4171727,13.4172784 C34.2406589,14.3053952 35.3354499,14.7941176 36.4998159,14.7941176 Z" id="Path"></path>
                    <path d="M13.922556,22.9715042 C14.1655664,22.1990803 13.8175968,21.3463397 13.145725,21.0673449 C12.1509535,20.6542326 11.0762928,20.7111076 10.118959,21.227594 C9.16162514,21.7440804 8.43660527,22.6579231 8.07727078,23.8011873 C7.83459472,24.5736111 8.18256412,25.4263517 8.85443594,25.7053466 C8.99950683,25.7656802 9.14792033,25.7941176 9.29399393,25.7941176 C9.82346911,25.7941176 10.3205206,25.4175131 10.5107171,24.8118713 C10.6350635,24.416052 10.8864305,24.0993967 11.218021,23.9203174 C11.5496115,23.7416223 11.9219823,23.7220234 12.2662749,23.8649796 C12.9381467,24.1439744 13.6798799,23.7443123 13.922556,22.9715042 L13.922556,22.9715042 Z" id="Path"></path>
                    <path d="M17.8544131,21.705309 C17.9998143,21.7652836 18.1478895,21.7941176 18.2939592,21.7941176 C18.8234201,21.7941176 19.3204583,21.4173533 19.5106497,20.8114548 C19.6353271,20.4150833 19.8863531,20.0982938 20.2179347,19.919523 C20.5495162,19.7403677 20.921877,19.7207606 21.2661603,19.8641616 C21.9383484,20.1432748 22.6797274,19.7430589 22.9227312,18.9703076 C23.1654009,18.1971718 22.8174408,17.3444542 22.1455869,17.065341 C20.0925888,16.212239 17.818982,17.4390297 17.0772687,19.7999579 C16.8345991,20.5730937 17.1825593,21.4258113 17.8544131,21.705309 Z" id="Path"></path>
                    <path d="M23.917896,26.6351664 C24.1757513,25.921702 23.8060166,25.1344063 23.0921195,24.8763522 C22.3782224,24.6182983 21.5900942,24.9878089 21.3322389,25.7016283 C20.382152,28.3286682 17.4704464,29.6934795 14.8421686,28.7446784 C14.1279164,28.4866243 13.3401434,28.8561349 13.0822881,29.5695994 C12.8240776,30.2834188 13.1938123,31.0707144 13.9077094,31.3287684 C14.7821444,31.6443256 15.6764693,31.7941176 16.5569424,31.7941176 C19.7581136,31.7941176 22.7689124,29.8131001 23.917896,26.6351664 L23.917896,26.6351664 Z" id="Path"></path>
                </g>
            </g>
        </g>
    </g>
</svg>