<?xml version="1.0" encoding="UTF-8"?>
<svg width="65px" height="65px" viewBox="0 0 65 65" version="1.1" xmlns="http://www.w3.org/2000/svg" xmlns:xlink="http://www.w3.org/1999/xlink">
    <!-- Generator: Sketch 63.1 (92452) - https://sketch.com -->
    <title>static pages</title>
    <desc>Created with Sketch.</desc>
    <g id="Page-1" stroke="none" stroke-width="1" fill="none" fill-rule="evenodd">
        <g id="Show" transform="translate(-1212.000000, -833.000000)" fill="#FFC41F" fill-rule="nonzero">
            <g id="Group-12" transform="translate(1212.000000, 833.000000)">
                <g id="seo-and-web" transform="translate(12.000000, 13.000000)">
                    <path d="M36.3020833,38.4807692 L4.69791667,38.4807692 C2.106375,38.4807692 0,36.351042 0,33.7307692 L0,5.23076923 C0,2.6104965 2.106375,0.480769231 4.69791667,0.480769231 L36.3020833,0.480769231 C38.893625,0.480769231 41,2.6104965 41,5.23076923 L41,33.7307692 C41,36.351042 38.893625,38.4807692 36.3020833,38.4807692 Z M4.69791667,3.07167832 C3.520875,3.07167832 2.5625,4.04067832 2.5625,5.23076923 L2.5625,33.7307692 C2.5625,34.9208601 3.520875,35.8898601 4.69791667,35.8898601 L36.3020833,35.8898601 C37.479125,35.8898601 38.4375,34.9208601 38.4375,33.7307692 L38.4375,5.23076923 C38.4375,4.04067832 37.479125,3.07167832 36.3020833,3.07167832 L4.69791667,3.07167832 Z" id="Shape"></path>
                    <path d="M39.71875,9.48076923 L1.28125,9.48076923 C0.574,9.48076923 0,8.80876923 0,7.98076923 C0,7.15276923 0.574,6.48076923 1.28125,6.48076923 L39.71875,6.48076923 C40.426,6.48076923 41,7.15276923 41,7.98076923 C41,8.80876923 40.426,9.48076923 39.71875,9.48076923 Z" id="Path"></path>
                </g>
            </g>
        </g>
    </g>
</svg>
