<?xml version="1.0" encoding="UTF-8"?>
<svg width="65px" height="65px" viewBox="0 0 65 65" version="1.1" xmlns="http://www.w3.org/2000/svg" xmlns:xlink="http://www.w3.org/1999/xlink">
    <!-- Generator: Sketch 63.1 (92452) - https://sketch.com -->
    <title>vendors</title>
    <desc>Created with Sketch.</desc>
    <g id="Page-1" stroke="none" stroke-width="1" fill="none" fill-rule="evenodd">
        <g id="Show" transform="translate(-553.000000, -833.000000)" fill="#000000" fill-rule="nonzero" stroke="#000000">
            <g id="Group-5" transform="translate(553.000000, 833.000000)">
                <path d="M39.8271851,33.0002804 C40.7930117,33.0002804 41.6959051,33.161794 42.5106352,33.4806151 C43.3282001,33.8011186 44.0352068,34.2405141 44.6126616,34.7870246 C45.1648865,35.3094202 45.657013,35.9442583 46.0757174,36.6733128 C46.4796807,37.3757288 46.8059697,38.1087088 47.0463632,38.8509423 C47.2788192,39.569061 47.4730051,40.3547573 47.6238181,41.1858794 C47.7732136,42.0108325 47.8747005,42.7920424 47.924877,43.5081982 C47.9744865,44.2080905 48,44.9385469 48,45.6790979 C48,47.5981936 47.3834245,49.1519208 46.1672824,50.2965363 C44.9661649,51.4268511 43.3775262,52 41.4455895,52 L41.4455895,52 L23.5544104,52 C21.6219068,52 20.0332681,51.4268511 18.8324341,50.2965363 C17.6165755,49.1510795 17,47.5979132 17,45.6793784 C17,44.941351 17.0249465,44.2108945 17.0742726,43.5090394 C17.1244491,42.7912012 17.2256525,42.0097109 17.3753315,41.1858794 C17.5261445,40.3547573 17.7203303,39.5693414 17.9525029,38.8512228 C18.1928965,38.1084285 18.5194689,37.3757288 18.9228652,36.6733128 C19.3412861,35.9445388 19.8334126,35.309981 20.3856375,34.7873051 C20.9636594,34.2402338 21.6709494,33.8008382 22.4879474,33.4808955 C23.302394,33.161794 24.2050039,33 25.171114,33 C25.5504142,33 25.9172412,33.1539427 26.6250983,33.6101625 C27.0676152,33.8953349 27.5778846,34.2206053 28.1417324,34.5770009 C28.6276222,34.8837645 29.2872872,35.1711802 30.1008834,35.4311162 C30.8960532,35.685444 31.7028458,35.8144306 32.498866,35.8144306 C33.2954533,35.8144306 34.1022459,35.685444 34.8968488,35.4311162 C35.7112954,35.1708998 36.3706769,34.8834842 36.8574172,34.5767204 C37.4266511,34.2169601 37.936637,33.8916897 38.3726338,33.6104428 C39.0810579,33.1542231 39.4478848,33.0002804 39.8271851,33.0002804 Z M39.9938731,35.1560383 C39.9176162,35.1961363 39.7818278,35.2729674 39.561845,35.4145722 C39.1142253,35.70339 38.6127439,36.0230524 38.0290524,36.392066 C37.3852626,36.7980932 36.5572087,37.1640225 35.5667191,37.4806004 C34.5555352,37.8039079 33.5233736,37.9682257 32.4991495,37.9682257 C31.4749254,37.9682257 30.4430473,37.8039079 29.4312965,37.48032 C28.4416573,37.1643029 27.6133201,36.7980932 26.9703806,36.3926268 C26.4000128,36.0323057 25.8840738,35.7031096 25.4364541,35.4145722 C25.2164713,35.272687 25.0806829,35.1961363 25.004426,35.1560383 C24.378779,35.1725823 23.8024581,35.2825012 23.2896373,35.4832716 C22.7351446,35.7003055 22.2645628,35.9896841 21.8912157,36.3432755 C21.4920717,36.7212622 21.1303473,37.1903806 20.8159647,37.7371715 C20.4865574,38.3108812 20.2209338,38.9064626 20.0261811,39.5079325 C19.8232072,40.1351998 19.6525504,40.8280819 19.518463,41.5663897 C19.3826746,42.3139509 19.2911096,43.0174885 19.2463193,43.6579347 C19.200395,44.3107189 19.1774329,44.9907023 19.1774329,45.6793784 C19.1774329,47.0034534 19.5555993,48.0036601 20.3337601,48.7363597 C21.1269456,49.4830798 22.1803683,49.846205 23.5544104,49.846205 L23.5544104,49.846205 L41.4453061,49.846205 C42.8190647,49.846205 43.8724875,49.4830798 44.6659564,48.7360793 C45.4441172,48.0036601 45.8222836,47.0037339 45.8225671,45.6793784 C45.8222836,44.9887395 45.799038,44.3090365 45.7528303,43.6587759 L45.7528303,43.6587759 L45.7203363,43.2670359 C45.6695543,42.7355575 45.5890905,42.1652799 45.4806866,41.5661094 C45.3468826,40.8283623 45.1759424,40.1357606 44.9726851,39.5076521 C44.7782157,38.906743 44.5123087,38.3108812 44.1826179,37.7374518 C43.8682353,37.1901002 43.506511,36.7209817 43.1073669,36.3432755 C42.7340198,35.9899645 42.2634381,35.7003055 41.7092288,35.4832716 C41.1961245,35.2825012 40.6198036,35.1725823 39.9938731,35.1560383 Z M32.5,14 C34.8351441,14 36.8571587,14.8376414 38.509772,16.4897685 C40.1623852,18.1427033 41,20.1647819 41,22.4997308 C41,24.8354874 40.1621159,26.8572967 38.5100412,28.509693 C36.8574279,30.1623587 34.8354134,31 32.5,31 C30.1651251,31 28.1431106,30.1620894 26.490228,28.5099623 C24.8378841,26.857566 24,24.8354874 24,22.4997308 C24,20.1645127 24.8378841,18.142434 26.490228,16.4900377 C28.142572,14.8376414 30.1643174,14 32.5,14 Z M32.5,16.0681206 C30.7079189,16.0681206 29.2206209,16.6844372 27.9527558,17.9523425 C26.6846215,19.220517 26.0680551,20.7081314 26.0680551,22.4997308 C26.0680551,24.2918686 26.6846215,25.779483 27.9527558,27.0473883 C29.2211593,28.3152935 30.7084574,28.9318794 32.5,28.9318794 C34.2918119,28.9318794 35.7793792,28.3155628 37.0475135,27.0473883 C38.3153785,25.7792138 38.9319449,24.2918686 38.9319449,22.4997308 C38.9319449,20.7081314 38.3153785,19.220517 37.0475135,17.9523425 C35.7793792,16.6844372 34.2918119,16.0681206 32.5,16.0681206 Z" id="Combined-Shape"></path>
            </g>
        </g>
    </g>
</svg>