<?xml version="1.0" encoding="UTF-8"?>
<svg width="65px" height="65px" viewBox="0 0 65 65" version="1.1" xmlns="http://www.w3.org/2000/svg" xmlns:xlink="http://www.w3.org/1999/xlink">
    <!-- Generator: Sketch 63.1 (92452) - https://sketch.com -->
    <title>shows</title>
    <desc>Created with Sketch.</desc>
    <g id="Page-1" stroke="none" stroke-width="1" fill="none" fill-rule="evenodd">
        <g id="Show" transform="translate(-729.000000, -833.000000)" fill-rule="nonzero" stroke="#FFC41F" stroke-width="2.5">
            <g id="Group-7" transform="translate(729.000000, 833.000000)">
                <path d="M18.7409447,16.0050577 C18.9549295,15.6344251 19.5318761,15.5668534 20.0294798,15.8541451 L20.0294798,15.8541451 L52.6926977,34.7122627 C53.1903014,34.9995544 53.4202559,35.5329906 53.2062711,35.9036232 L53.2062711,35.9036232 L50.881386,39.9304423 C50.6674012,40.3010749 50.0904546,40.3686466 49.5928508,40.0813549 C48.5976434,39.5067716 47.4437501,39.641915 47.0157805,40.3831801 C46.587811,41.1244451 47.04772,42.1913177 48.0429274,42.765901 C48.5405312,43.0531927 48.7704857,43.5866289 48.5565009,43.9572615 L48.5565009,43.9572615 L46.2316158,47.9840806 C46.017631,48.3547132 45.440685,48.4222837 44.9430813,48.134992 L44.9430813,48.134992 L12.2798634,29.2768744 C11.7822597,28.9895827 11.5523045,28.4561477 11.7662893,28.0855151 L11.7662893,28.0855151 L14.0911744,24.058696 C14.3051592,23.6880634 14.8821058,23.6204917 15.3797096,23.9077834 C16.374917,24.4823667 17.5288103,24.3472233 17.9567799,23.6059582 C18.3847495,22.8646932 17.9248404,21.7978206 16.929633,21.2232373 C16.4320292,20.9359456 16.2020747,20.4025094 16.4160595,20.0318768 L16.4160595,20.0318768 Z M34.7365888,28.1138817 L31.6106306,29.9004068 L27.9029189,28.3961526 L29.1715631,31.8541894 L26.8436006,34.4364548 L30.7536241,34.787114 L33.0225759,37.8872961 L34.1704591,34.6459786 L37.9007109,33.979731 L34.7001182,31.6258275 L34.7365888,28.1138817 Z" id="prices"></path>
            </g>
        </g>
    </g>
</svg>
