<?xml version="1.0" encoding="UTF-8"?>
<svg width="65px" height="65px" viewBox="0 0 65 65" version="1.1" xmlns="http://www.w3.org/2000/svg" xmlns:xlink="http://www.w3.org/1999/xlink">
    <!-- Generator: Sketch 63.1 (92452) - https://sketch.com -->
    <title>faqs</title>
    <desc>Created with Sketch.</desc>
    <g id="Page-1" stroke="none" stroke-width="1" fill="none" fill-rule="evenodd">
        <g id="Show" transform="translate(-1116.000000, -833.000000)" fill="#000000" fill-rule="nonzero">
            <g id="Group-11" transform="translate(1116.000000, 833.000000)">
                <g id="question-(5)" transform="translate(13.500000, 12.000000)">
                    <path d="M18.4869119,26 C17.3889389,26 16.5,26.9090909 16.5,28 C16.5,29.0649031 17.3627627,30 18.4869119,30 C19.6110611,30 20.5,29.0649776 20.5,28 C20.5,26.9090909 19.585035,26 18.4869119,26 Z" id="Path"></path>
                    <path d="M18.7853324,11 C15.163385,11 13.5,13.0232912 13.5,14.3890582 C13.5,15.3754898 14.3853016,15.8307212 15.1097373,15.8307212 C16.5584547,15.8307212 15.9682536,13.8832535 18.7048225,13.8832535 C20.0463216,13.8832535 21.1195054,14.439704 21.1195054,15.6031055 C21.1195054,16.968945 19.6170634,17.7529386 18.7316848,18.4611087 C17.9536784,19.0933827 16.9341422,20.1303875 16.9341422,22.3054709 C16.9341422,23.6205921 17.3096757,24 18.4097219,24 C19.7243587,24 19.9925969,23.4436221 19.9925969,22.9630678 C19.9925969,21.647874 20.0195362,20.8891308 21.4951159,19.8016253 C22.2194746,19.2704978 24.5,17.5506458 24.5,15.1731969 C24.5,12.7957481 22.2194746,11 18.7853324,11 Z" id="Path"></path>
                    <path d="M19.5,0 C8.99923438,0 0.5,8.49782422 0.5,19 L0.5,36.515625 C0.5,37.3354453 1.16455469,38 1.984375,38 L19.5,38 C30.0006914,38 38.5,29.5021758 38.5,19 C38.5,8.49923438 30.0021758,0 19.5,0 Z M19.5,35.03125 L3.46875,35.03125 L3.46875,19 C3.46875,10.1399883 10.6388008,2.96875 19.5,2.96875 C28.3600117,2.96875 35.53125,10.1388008 35.53125,19 C35.53125,27.8600117 28.3611992,35.03125 19.5,35.03125 Z" id="Shape"></path>
                </g>
            </g>
        </g>
    </g>
</svg>