<?xml version="1.0" encoding="UTF-8"?>
<svg width="65px" height="65px" viewBox="0 0 65 65" version="1.1" xmlns="http://www.w3.org/2000/svg" xmlns:xlink="http://www.w3.org/1999/xlink">
    <!-- Generator: Sketch 63.1 (92452) - https://sketch.com -->
    <title>vendors copy</title>
    <desc>Created with Sketch.</desc>
    <g id="Page-1" stroke="none" stroke-width="1" fill="none" fill-rule="evenodd">
        <g id="Show" transform="translate(-1044.000000, -925.000000)" fill="#000000" fill-rule="nonzero">
            <g id="Group-15" transform="translate(1044.000000, 925.000000)">
                <g id="music-and-multimedia" transform="translate(12.000000, 13.000000)">
                    <path d="M40.326697,1.17179688 C40.326697,0.5246875 39.8020095,0 39.154822,0 L20.3284157,0 L20.327322,0 L1.50091573,0 C0.853728227,0 0.329040727,0.5246875 0.329040727,1.17179688 L0.327868852,38.8280469 C0.327868852,39.1389062 0.451306352,39.4369531 0.671150102,39.6567187 C0.890837602,39.8765625 1.18888448,40 1.49974385,40 L11.6869314,40 C12.3341189,40 12.8588064,39.4753125 12.8588064,38.828125 C12.8588064,30.9770312 11.4191189,25.9164844 10.7461501,23.9798438 C13.0936501,22.1689062 15.1067751,19.9389063 16.7381814,17.3401562 C18.1681032,15.0625781 19.3081032,12.4995313 20.1268532,9.7225 C20.1974782,9.48296875 20.2642751,9.24625 20.3277907,9.01234375 C20.3913064,9.24625 20.4581032,9.48296875 20.5287282,9.7225 C21.3474001,12.4995313 22.4874782,15.0625781 23.9174001,17.3401562 C25.5488064,19.9389844 27.5619314,22.1689844 29.9094314,23.9798438 C29.2364626,25.9164844 27.7967751,30.9769531 27.7967751,38.828125 C27.7967751,39.4753125 28.3214626,40 28.9686501,40 L39.1559939,40 C39.4667751,40 39.7649001,39.8765625 39.9845876,39.6567187 C40.2043532,39.4369531 40.3278689,39.1388281 40.3278689,38.8280469 L40.326697,1.17179688 Z M35.0852907,22.395 C34.529197,21.5214844 33.3406814,19.5353125 32.1134157,16.7304688 C30.6715407,13.4351562 28.8984157,8.3446875 28.3555251,2.34375 L32.0112282,2.34375 C32.7495095,4.769375 35.0227126,11.6907812 37.9834939,15.5107812 L37.9837282,22.395 L35.0852907,22.395 Z M37.9833376,11.10375 C36.3790407,8.03601563 35.1083376,4.35351562 34.4687282,2.34375 L37.9830251,2.34375 L37.9833376,11.10375 Z M6.18700948,2.34375 C5.5474001,4.35351562 4.27669698,8.03601563 2.6724001,11.10375 L2.6727126,2.34375 L6.18700948,2.34375 Z M2.67161885,37.65625 L2.67200948,24.73875 L5.02982198,24.73875 L5.02982198,31.1975 C5.02982198,31.8446875 5.55450948,32.369375 6.20169698,32.369375 C6.84888448,32.369375 7.37357198,31.8446875 7.37357198,31.1975 L7.37357198,24.73875 L8.5249001,24.73875 C9.0874001,26.3728906 10.3693532,30.81375 10.5036501,37.65625 L2.67161885,37.65625 Z M17.8578689,9.1303125 C17.0968532,11.69 16.0443532,14.0454687 14.7296657,16.1314844 C13.167322,18.6104687 11.2245876,20.7153125 8.95341573,22.395 L8.31294698,22.395 C9.28755635,20.7114844 10.7240407,17.9432812 12.005447,14.3525 C12.222947,13.7429688 11.9051345,13.0725 11.2955251,12.855 C10.686072,12.6373437 10.0155251,12.9551562 9.79794698,13.5648437 C8.1986501,18.0466406 6.31560323,21.2228125 5.5702126,22.395 L2.6720876,22.395 L2.67232198,15.5107812 C5.6330251,11.6907812 7.90622823,4.769375 8.64450948,2.34375 L12.2990407,2.34375 C12.1574001,3.91398438 11.9270095,5.50015625 11.608572,7.07523437 C11.4802126,7.70960938 11.8905251,8.3278125 12.5249001,8.45609375 C12.6033376,8.47195313 12.6813845,8.47960937 12.7583376,8.47960937 C13.3044314,8.47960937 13.7933376,8.09570312 13.9057595,7.53976563 C14.2553689,5.81078125 14.5042751,4.06796875 14.6515407,2.34375 L19.106072,2.34375 C19.0075564,3.73539062 18.7163845,6.24289062 17.8578689,9.1303125 Z M25.926072,16.1314844 C24.6113845,14.0454687 23.5588845,11.6899219 22.7978689,9.1303125 C21.9392751,6.24257812 21.6481814,3.735 21.5495876,2.34375 L26.0034939,2.34375 C26.5544314,8.776875 28.4527907,14.2240625 29.9938845,17.733125 C30.8615407,19.7088281 31.7030251,21.2867969 32.3441189,22.395 L31.7024001,22.395 C29.4311501,20.7153906 27.4884157,18.6105469 25.926072,16.1314844 L25.926072,16.1314844 Z M35.6259157,37.65625 L35.6259157,35.4185937 C35.6259157,34.7714062 35.1012282,34.2467187 34.4540407,34.2467187 C33.8068532,34.2467187 33.2821657,34.7714062 33.2821657,35.4185937 L33.2821657,37.65625 L30.1520876,37.65625 C30.2864626,30.8123438 31.5688064,26.3710937 32.1307595,24.73875 L33.2821657,24.73875 L33.2821657,29.5764844 C33.2821657,30.2236719 33.8068532,30.7483594 34.4540407,30.7483594 C35.1012282,30.7483594 35.6259157,30.2236719 35.6259157,29.5764844 L35.6259157,24.73875 L37.9837282,24.73875 L37.9841189,37.65625 L35.6259157,37.65625 Z" id="Shape"></path>
                </g>
            </g>
        </g>
    </g>
</svg>