<?xml version="1.0" encoding="UTF-8"?>
<svg width="65px" height="65px" viewBox="0 0 65 65" version="1.1" xmlns="http://www.w3.org/2000/svg" xmlns:xlink="http://www.w3.org/1999/xlink">
    <title>qrcode</title>
    <g id="Page-1" stroke="none" stroke-width="1" fill="none" fill-rule="evenodd">
        <g id="Group-26-Copy" fill="#000000" fill-rule="nonzero">
            <g id="qr-code-(4)" transform="translate(17.000000, 17.000000)">
                <path d="M26.7573633,0 L22.5585938,0 C22.0732031,0 21.6796875,0.393515625 21.6796875,0.87890625 C21.6796875,1.36429687 22.0732031,1.7578125 22.5585938,1.7578125 L26.7573633,1.7578125 C27.5760937,1.7578125 28.2421875,2.42390625 28.2421875,3.24257813 L28.2421875,7.44140625 C28.2421875,7.92679687 28.6357031,8.3203125 29.1210938,8.3203125 C29.6064844,8.3203125 30,7.92679687 30,7.44140625 L30,3.24257813 C30,1.45464844 28.5453516,0 26.7573633,0 Z" id="Path"></path>
                <path d="M0.87890625,8.3203125 C1.36429688,8.3203125 1.7578125,7.92679687 1.7578125,7.44140625 L1.7578125,3.24257813 C1.7578125,2.42390625 2.42390625,1.7578125 3.24263672,1.7578125 L7.44140625,1.7578125 C7.92679687,1.7578125 8.3203125,1.36429687 8.3203125,0.87890625 C8.3203125,0.393515625 7.92679687,0 7.44140625,0 L3.24263672,0 C1.45464844,0 0,1.45464844 0,3.24257813 L0,7.44140625 C0,7.92679687 0.393515625,8.3203125 0.87890625,8.3203125 Z" id="Path"></path>
                <path d="M7.44140625,28.2421875 L3.24263672,28.2421875 C2.42390625,28.2421875 1.7578125,27.5760937 1.7578125,26.7574219 L1.7578125,22.5585938 C1.7578125,22.0732031 1.36429687,21.6796875 0.87890625,21.6796875 C0.393515625,21.6796875 0,22.0732031 0,22.5585938 L0,26.7574219 C0,28.5453516 1.45464844,30 3.24263672,30 L7.44140625,30 C7.92679687,30 8.3203125,29.6064844 8.3203125,29.1210938 C8.3203125,28.6357031 7.92679687,28.2421875 7.44140625,28.2421875 Z" id="Path"></path>
                <path d="M29.1210938,21.6796875 C28.6357031,21.6796875 28.2421875,22.0732031 28.2421875,22.5585938 L28.2421875,26.7574219 C28.2421875,27.5761523 27.5760937,28.2421875 26.7573633,28.2421875 L22.5585938,28.2421875 C22.0732031,28.2421875 21.6796875,28.6357031 21.6796875,29.1210937 C21.6796875,29.6064844 22.0732031,30 22.5585938,30 L26.7573633,30 C28.5453516,30 30,28.5453516 30,26.7574219 L30,22.5585938 C30,22.0732031 29.6064844,21.6796875 29.1210938,21.6796875 Z" id="Path"></path>
                <path d="M26.1914062,25.3125 L26.1914062,15.9375 C26.1914062,15.4521094 25.7978906,15.0585938 25.3125,15.0585938 L15.9375,15.0585938 C15.4521094,15.0585938 15.0585938,15.4521094 15.0585938,15.9375 L15.0585938,25.3125 C15.0585938,25.7978906 15.4521094,26.1914062 15.9375,26.1914062 L25.3125,26.1914062 C25.7978906,26.1914062 26.1914062,25.7978906 26.1914062,25.3125 Z M24.4335938,24.4335938 L16.8164062,24.4335938 L16.8164062,16.8164062 L24.4335938,16.8164062 L24.4335938,24.4335938 Z" id="Shape"></path>
                <path d="M18.28125,13.0664062 L24.84375,13.0664062 C25.3291406,13.0664062 25.7226562,12.6728906 25.7226562,12.1875 L25.7226562,5.625 C25.7226562,5.13960938 25.3291406,4.74609375 24.84375,4.74609375 L18.28125,4.74609375 C17.7958594,4.74609375 17.4023438,5.13960938 17.4023438,5.625 L17.4023438,12.1875 C17.4023438,12.6728906 17.7958594,13.0664062 18.28125,13.0664062 Z M19.1601562,6.50390625 L23.9648438,6.50390625 L23.9648438,11.3085938 L19.1601562,11.3085938 L19.1601562,6.50390625 Z" id="Shape"></path>
                <path d="M13.125,3.80859375 L4.6875,3.80859375 C4.20210938,3.80859375 3.80859375,4.20210938 3.80859375,4.6875 L3.80859375,13.125 C3.80859375,13.6103906 4.20210938,14.0039062 4.6875,14.0039062 L13.125,14.0039062 C13.6103906,14.0039062 14.0039062,13.6103906 14.0039062,13.125 L14.0039062,4.6875 C14.0039062,4.20210938 13.6103906,3.80859375 13.125,3.80859375 Z M12.2460938,12.2460938 L5.56640625,12.2460938 L5.56640625,5.56640625 L12.2460938,5.56640625 L12.2460938,12.2460938 Z" id="Shape"></path>
                <path d="M12.1875,24.4335938 L5.56640625,24.4335938 L5.56640625,16.875 C5.56640625,16.3896094 5.17289063,15.9960938 4.6875,15.9960938 C4.20210938,15.9960938 3.80859375,16.3896094 3.80859375,16.875 L3.80859375,25.3125 C3.80859375,25.7978906 4.20210938,26.1914062 4.6875,26.1914062 L12.1875,26.1914062 C12.6728906,26.1914062 13.0664062,25.7978906 13.0664062,25.3125 C13.0664062,24.8271094 12.6728906,24.4335938 12.1875,24.4335938 Z" id="Path"></path>
                <path d="M9.31640625,21.5625 L9.31640625,16.875 C9.31640625,16.3896094 8.92289062,15.9960938 8.4375,15.9960938 C7.95210938,15.9960938 7.55859375,16.3896094 7.55859375,16.875 L7.55859375,21.5625 C7.55859375,22.0478906 7.95210938,22.4414062 8.4375,22.4414062 C8.92289062,22.4414062 9.31640625,22.0478906 9.31640625,21.5625 Z" id="Path"></path>
                <path d="M12.1875,15.9960938 C11.7021094,15.9960938 11.3085938,16.3896094 11.3085938,16.875 L11.3085938,21.5625 C11.3085938,22.0478906 11.7021094,22.4414062 12.1875,22.4414062 C12.6728906,22.4414062 13.0664062,22.0478906 13.0664062,21.5625 L13.0664062,16.875 C13.0664062,16.3896094 12.6728906,15.9960938 12.1875,15.9960938 Z" id="Path"></path>
                <path d="M19.6875,21.5039062 L21.5625,21.5039062 C22.0478906,21.5039062 22.4414062,21.1103906 22.4414062,20.625 C22.4414062,20.1396094 22.0478906,19.7460938 21.5625,19.7460938 L19.6875,19.7460938 C19.2021094,19.7460938 18.8085938,20.1396094 18.8085938,20.625 C18.8085938,21.1103906 19.2021094,21.5039062 19.6875,21.5039062 Z" id="Path"></path>
                <path d="M8.90625,10.2539062 C9.39164062,10.2539062 9.78515625,9.86039062 9.78515625,9.375 L9.78515625,8.4375 C9.78515625,7.95210938 9.39164062,7.55859375 8.90625,7.55859375 C8.42085938,7.55859375 8.02734375,7.95210938 8.02734375,8.4375 L8.02734375,9.375 C8.02734375,9.86039062 8.42085938,10.2539062 8.90625,10.2539062 Z" id="Path"></path>
            </g>
        </g>
    </g>
</svg>