<?xml version="1.0" encoding="UTF-8"?>
<svg width="65px" height="65px" viewBox="0 0 65 65" version="1.1" xmlns="http://www.w3.org/2000/svg" xmlns:xlink="http://www.w3.org/1999/xlink">
    <!-- Generator: Sketch 63.1 (92452) - https://sketch.com -->
    <title>adminstration</title>
    <desc>Created with Sketch.</desc>
    <g id="Page-1" stroke="none" stroke-width="1" fill="none" fill-rule="evenodd">
        <g id="Show" transform="translate(-380.000000, -833.000000)" fill="#000000" fill-rule="nonzero" stroke="#000000">
            <g id="Group-4" transform="translate(380.000000, 833.000000)">
                <path d="M32.5,13 C43.8313675,13 53,22.1698837 53,33.5 C53,44.7813186 43.861084,54 32.5,54 C21.0919952,54 12,44.7297058 12,33.5 C12,22.1686325 21.1698837,13 32.5,13 Z M45.999733,45.5517578 C38.8130341,37.4901428 26.1888428,37.488266 18.9999542,45.5517578 C26.2160568,53.6240082 38.7867584,53.6215058 45.999733,45.5517578 Z M32.5,15.4023438 C22.5208892,15.4023438 14.4023438,23.5208892 14.4023438,33.5 C14.4023438,37.1504364 15.4880905,40.6591721 17.5016174,43.631134 C25.6017075,34.9182587 39.4129944,34.9338989 47.4983826,43.631134 C49.5119095,40.6591721 50.5976562,37.1504364 50.5976562,33.5 C50.5976562,23.5208892 42.4791108,15.4023438 32.5,15.4023438 Z M32.5,19 C36.6354167,19 40,22.0535714 40,25.8067227 L40,25.8067227 L40,27.1932773 C40,30.9464286 36.6354167,34 32.5,34 C28.3645833,34 25,30.9464286 25,27.1932773 L25,27.1932773 L25,25.8067227 C25,22.0535714 28.3645833,19 32.5,19 Z M32.5,21.2689076 C29.7428385,21.2689076 27.5,23.3044249 27.5,25.8067227 L27.5,25.8067227 L27.5,27.1932773 C27.5,29.6955751 29.7428385,31.7310924 32.5,31.7310924 C35.2571615,31.7310924 37.5,29.6955751 37.5,27.1932773 L37.5,27.1932773 L37.5,25.8067227 C37.5,23.3044249 35.2571615,21.2689076 32.5,21.2689076 Z" id="Combined-Shape"></path>
            </g>
        </g>
    </g>
</svg>